ISO-10303-21;
HEADER;
FILE_DESCRIPTION(('Open CASCADE Model'),'2;1');
FILE_NAME('Open CASCADE Shape Model','2026-09-26T01:43:18',('Author'),(
    'Open CASCADE'),'Open CASCADE STEP processor 8.0','build123d',
  'Unknown');
FILE_SCHEMA(('AUTOMOTIVE_DESIGN { 1 0 10303 214 1 1 1 1 }'));
ENDSEC;
DATA;
#1 = APPLICATION_PROTOCOL_DEFINITION('international standard',
  'automotive_design',2000,#2);
#2 = APPLICATION_CONTEXT(
  'core data for automotive mechanical design processes');
#3 = SHAPE_DEFINITION_REPRESENTATION(#4,#10);
#4 = PRODUCT_DEFINITION_SHAPE('','',#5);
#5 = PRODUCT_DEFINITION('design','',#6,#9);
#6 = PRODUCT_DEFINITION_FORMATION('','',#7);
#7 = PRODUCT('COMPOUND','COMPOUND','',(#8));
#8 = PRODUCT_CONTEXT('',#2,'mechanical');
#9 = PRODUCT_DEFINITION_CONTEXT('part definition',#2,'design');
#10 = ADVANCED_BREP_SHAPE_REPRESENTATION('',(#11,#15),#1113);
#11 = AXIS2_PLACEMENT_3D('',#12,#13,#14);
#12 = CARTESIAN_POINT('',(0.,0.,0.));
#13 = DIRECTION('',(0.,0.,1.));
#14 = DIRECTION('',(1.,0.,-0.));
#15 = MANIFOLD_SOLID_BREP('',#16);
#16 = CLOSED_SHELL('',(#17,#637,#672,#765,#820,#875,#930,#1008,#1013,
    #1017,#1021,#1056,#1086));
#17 = ADVANCED_FACE('',(#18,#139,#310),#31,.T.);
#18 = FACE_BOUND('',#19,.T.);
#19 = EDGE_LOOP('',(#20,#54,#77,#138));
#20 = ORIENTED_EDGE('',*,*,#21,.T.);
#21 = EDGE_CURVE('',#22,#22,#24,.T.);
#22 = VERTEX_POINT('',#23);
#23 = CARTESIAN_POINT('',(36.,-8.817456953861E-15,40.));
#24 = SURFACE_CURVE('',#25,(#30,#42),.PCURVE_S1.);
#25 = CIRCLE('',#26,36.);
#26 = AXIS2_PLACEMENT_3D('',#27,#28,#29);
#27 = CARTESIAN_POINT('',(0.,0.,40.));
#28 = DIRECTION('',(0.,0.,1.));
#29 = DIRECTION('',(1.,0.,-0.));
#30 = PCURVE('',#31,#36);
#31 = CYLINDRICAL_SURFACE('',#32,36.);
#32 = AXIS2_PLACEMENT_3D('',#33,#34,#35);
#33 = CARTESIAN_POINT('',(0.,0.,40.));
#34 = DIRECTION('',(0.,0.,1.));
#35 = DIRECTION('',(1.,0.,-0.));
#36 = DEFINITIONAL_REPRESENTATION('',(#37),#41);
#37 = LINE('',#38,#39);
#38 = CARTESIAN_POINT('',(0.,0.));
#39 = VECTOR('',#40,1.);
#40 = DIRECTION('',(1.,0.));
#41 = ( GEOMETRIC_REPRESENTATION_CONTEXT(2) 
PARAMETRIC_REPRESENTATION_CONTEXT() REPRESENTATION_CONTEXT('2D SPACE',''
  ) );
#42 = PCURVE('',#43,#48);
#43 = PLANE('',#44);
#44 = AXIS2_PLACEMENT_3D('',#45,#46,#47);
#45 = CARTESIAN_POINT('',(0.,0.,40.));
#46 = DIRECTION('',(0.,0.,1.));
#47 = DIRECTION('',(1.,0.,-0.));
#48 = DEFINITIONAL_REPRESENTATION('',(#49),#53);
#49 = CIRCLE('',#50,36.);
#50 = AXIS2_PLACEMENT_2D('',#51,#52);
#51 = CARTESIAN_POINT('',(0.,0.));
#52 = DIRECTION('',(1.,0.));
#53 = ( GEOMETRIC_REPRESENTATION_CONTEXT(2) 
PARAMETRIC_REPRESENTATION_CONTEXT() REPRESENTATION_CONTEXT('2D SPACE',''
  ) );
#54 = ORIENTED_EDGE('',*,*,#55,.T.);
#55 = EDGE_CURVE('',#22,#56,#58,.T.);
#56 = VERTEX_POINT('',#57);
#57 = CARTESIAN_POINT('',(36.,-8.817456953861E-15,129.21539030917));
#58 = SEAM_CURVE('',#59,(#63,#70),.PCURVE_S1.);
#59 = LINE('',#60,#61);
#60 = CARTESIAN_POINT('',(36.,-8.817456953861E-15,40.));
#61 = VECTOR('',#62,1.);
#62 = DIRECTION('',(0.,0.,1.));
#63 = PCURVE('',#31,#64);
#64 = DEFINITIONAL_REPRESENTATION('',(#65),#69);
#65 = LINE('',#66,#67);
#66 = CARTESIAN_POINT('',(0.,-0.));
#67 = VECTOR('',#68,1.);
#68 = DIRECTION('',(0.,1.));
#69 = ( GEOMETRIC_REPRESENTATION_CONTEXT(2) 
PARAMETRIC_REPRESENTATION_CONTEXT() REPRESENTATION_CONTEXT('2D SPACE',''
  ) );
#70 = PCURVE('',#31,#71);
#71 = DEFINITIONAL_REPRESENTATION('',(#72),#76);
#72 = LINE('',#73,#74);
#73 = CARTESIAN_POINT('',(6.28318530718,-0.));
#74 = VECTOR('',#75,1.);
#75 = DIRECTION('',(0.,1.));
#76 = ( GEOMETRIC_REPRESENTATION_CONTEXT(2) 
PARAMETRIC_REPRESENTATION_CONTEXT() REPRESENTATION_CONTEXT('2D SPACE',''
  ) );
#77 = ORIENTED_EDGE('',*,*,#78,.F.);
#78 = EDGE_CURVE('',#56,#56,#79,.T.);
#79 = SURFACE_CURVE('',#80,(#85,#126),.PCURVE_S1.);
#80 = ELLIPSE('',#81,41.569219381653,36.);
#81 = AXIS2_PLACEMENT_3D('',#82,#83,#84);
#82 = CARTESIAN_POINT('',(0.,0.,150.));
#83 = DIRECTION('',(0.5,0.,0.866025403784));
#84 = DIRECTION('',(-0.866025403784,0.,0.5));
#85 = PCURVE('',#31,#86);
#86 = DEFINITIONAL_REPRESENTATION('',(#87),#125);
#87 = B_SPLINE_CURVE_WITH_KNOTS('',8,(#88,#89,#90,#91,#92,#93,#94,#95,
    #96,#97,#98,#99,#100,#101,#102,#103,#104,#105,#106,#107,#108,#109,
    #110,#111,#112,#113,#114,#115,#116,#117,#118,#119,#120,#121,#122,
    #123,#124),.UNSPECIFIED.,.F.,.F.,(9,7,7,7,7,9),(3.14159265359,
    4.712388980385,5.890486225481,6.774059159303,8.099418560036,
    9.424777960769),.UNSPECIFIED.);
#88 = CARTESIAN_POINT('',(-8.881784197001E-16,89.215390309173));
#89 = CARTESIAN_POINT('',(0.196349540849,89.215390309173));
#90 = CARTESIAN_POINT('',(0.392699081696,90.131176340627));
#91 = CARTESIAN_POINT('',(0.589048622541,91.96274062444));
#92 = CARTESIAN_POINT('',(0.785398163379,94.634795408463));
#93 = CARTESIAN_POINT('',(0.981747704253,97.99661227467));
#94 = CARTESIAN_POINT('',(1.178097245089,101.83790189187));
#95 = CARTESIAN_POINT('',(1.374446785946,105.91895143047));
#96 = CARTESIAN_POINT('',(1.718058482432,113.06078642714));
#97 = CARTESIAN_POINT('',(1.865320638073,116.12157293844));
#98 = CARTESIAN_POINT('',(2.012582793669,119.08121339348));
#99 = CARTESIAN_POINT('',(2.159844949395,121.83856576809));
#100 = CARTESIAN_POINT('',(2.307107104935,124.2994940165));
#101 = CARTESIAN_POINT('',(2.454369260619,126.38393361395));
#102 = CARTESIAN_POINT('',(2.601631416254,128.03116322891));
#103 = CARTESIAN_POINT('',(2.859340188619,130.08095967634));
#104 = CARTESIAN_POINT('',(2.969786805347,130.69174044599));
#105 = CARTESIAN_POINT('',(3.080233422074,131.01848861336));
#106 = CARTESIAN_POINT('',(3.190680038802,131.0518392743));
#107 = CARTESIAN_POINT('',(3.30112665553,130.79003948413));
#108 = CARTESIAN_POINT('',(3.411573272258,130.23911024652));
#109 = CARTESIAN_POINT('',(3.522019888985,129.41252280792));
#110 = CARTESIAN_POINT('',(3.798136430805,126.7071889319));
#111 = CARTESIAN_POINT('',(3.963806355882,124.50901067133));
#112 = CARTESIAN_POINT('',(4.129476281004,121.80374432128));
#113 = CARTESIAN_POINT('',(4.295146205998,118.69293409143));
#114 = CARTESIAN_POINT('',(4.460816131189,115.30586519662));
#115 = CARTESIAN_POINT('',(4.626486056248,111.78854711227));
#116 = CARTESIAN_POINT('',(4.792155981355,108.28994260349));
#117 = CARTESIAN_POINT('',(5.123495831538,101.6095609927));
#118 = CARTESIAN_POINT('',(5.289165756628,98.427783441439));
#119 = CARTESIAN_POINT('',(5.454835681722,95.544118558988));
#120 = CARTESIAN_POINT('',(5.620505606738,93.088981058914));
#121 = CARTESIAN_POINT('',(5.786175531936,91.171270331834));
#122 = CARTESIAN_POINT('',(5.951845456992,89.867350806089));
#123 = CARTESIAN_POINT('',(6.117515382088,89.215390309173));
#124 = CARTESIAN_POINT('',(6.28318530718,89.215390309173));
#125 = ( GEOMETRIC_REPRESENTATION_CONTEXT(2) 
PARAMETRIC_REPRESENTATION_CONTEXT() REPRESENTATION_CONTEXT('2D SPACE',''
  ) );
#126 = PCURVE('',#127,#132);
#127 = PLANE('',#128);
#128 = AXIS2_PLACEMENT_3D('',#129,#130,#131);
#129 = CARTESIAN_POINT('',(-173.2050807568,-200.,250.));
#130 = DIRECTION('',(0.5,0.,0.866025403784));
#131 = DIRECTION('',(0.866025403784,0.,-0.5));
#132 = DEFINITIONAL_REPRESENTATION('',(#133),#137);
#133 = ELLIPSE('',#134,41.569219381653,36.);
#134 = AXIS2_PLACEMENT_2D('',#135,#136);
#135 = CARTESIAN_POINT('',(200.,200.));
#136 = DIRECTION('',(-1.,0.));
#137 = ( GEOMETRIC_REPRESENTATION_CONTEXT(2) 
PARAMETRIC_REPRESENTATION_CONTEXT() REPRESENTATION_CONTEXT('2D SPACE',''
  ) );
#138 = ORIENTED_EDGE('',*,*,#55,.F.);
#139 = FACE_BOUND('',#140,.T.);
#140 = EDGE_LOOP('',(#141));
#141 = ORIENTED_EDGE('',*,*,#142,.T.);
#142 = EDGE_CURVE('',#143,#143,#145,.T.);
#143 = VERTEX_POINT('',#144);
#144 = CARTESIAN_POINT('',(5.,35.651086939952,70.));
#145 = SURFACE_CURVE('',#146,(#197,#251),.PCURVE_S1.);
#146 = B_SPLINE_CURVE_WITH_KNOTS('',7,(#147,#148,#149,#150,#151,#152,
    #153,#154,#155,#156,#157,#158,#159,#160,#161,#162,#163,#164,#165,
    #166,#167,#168,#169,#170,#171,#172,#173,#174,#175,#176,#177,#178,
    #179,#180,#181,#182,#183,#184,#185,#186,#187,#188,#189,#190,#191,
    #192,#193,#194,#195,#196),.UNSPECIFIED.,.T.,.F.,(8,6,6,6,6,6,6,6,8),
  (0.,0.13398335075,0.250118646247,0.3662539411,0.500237291828,
    0.634220642556,0.750355938011,0.861284185068,1.),.UNSPECIFIED.);
#147 = CARTESIAN_POINT('',(5.,35.651086939952,70.));
#148 = CARTESIAN_POINT('',(5.,35.651086939952,70.516441344279));
#149 = CARTESIAN_POINT('',(4.937767039125,35.65981484728,71.032088067567
    ));
#150 = CARTESIAN_POINT('',(4.813647872297,35.677223079881,
    71.543013464957));
#151 = CARTESIAN_POINT('',(4.625936678558,35.702849669832,
    72.044952342163));
#152 = CARTESIAN_POINT('',(4.371460103767,35.735771769497,
    72.531971637641));
#153 = CARTESIAN_POINT('',(4.045896055179,35.774197885968,72.99565754965
    ));
#154 = CARTESIAN_POINT('',(3.297214876656,35.850390110036,
    73.792922027664));
#155 = CARTESIAN_POINT('',(2.883020107193,35.888564587283,
    74.146093635294));
#156 = CARTESIAN_POINT('',(2.402891208693,35.926748005203,
    74.460904908108));
#157 = CARTESIAN_POINT('',(1.862588501341,35.960905130316,74.71850648688
    ));
#158 = CARTESIAN_POINT('',(1.272372934615,35.986480593458,
    74.902662576193));
#159 = CARTESIAN_POINT('',(0.645878967537,36.,75.));
#160 = CARTESIAN_POINT('',(-0.645878963951,36.,75.));
#161 = CARTESIAN_POINT('',(-1.272372947577,35.986480593235,
    74.902662574152));
#162 = CARTESIAN_POINT('',(-1.862588479907,35.960905131008,
    74.71850649338));
#163 = CARTESIAN_POINT('',(-2.402891227986,35.926748004276,
    74.460904899153));
#164 = CARTESIAN_POINT('',(-2.88302009792,35.888564587911,74.14609364159
    ));
#165 = CARTESIAN_POINT('',(-3.297214878531,35.850390109845,
    73.792922025667));
#166 = CARTESIAN_POINT('',(-4.045896055177,35.774197885968,
    72.995657549652));
#167 = CARTESIAN_POINT('',(-4.371460103771,35.735771769497,
    72.531971637637));
#168 = CARTESIAN_POINT('',(-4.625936678552,35.702849669833,
    72.044952342165));
#169 = CARTESIAN_POINT('',(-4.813647872301,35.677223079881,
    71.543013464958));
#170 = CARTESIAN_POINT('',(-4.937767039124,35.65981484728,
    71.032088067565));
#171 = CARTESIAN_POINT('',(-5.,35.651086939952,70.51644134428));
#172 = CARTESIAN_POINT('',(-5.,35.651086939952,69.48355865572));
#173 = CARTESIAN_POINT('',(-4.937767039124,35.65981484728,
    68.967911932435));
#174 = CARTESIAN_POINT('',(-4.8136478723,35.677223079881,68.456986535042
    ));
#175 = CARTESIAN_POINT('',(-4.625936678553,35.702849669832,
    67.955047657835));
#176 = CARTESIAN_POINT('',(-4.371460103771,35.735771769497,
    67.468028362362));
#177 = CARTESIAN_POINT('',(-4.045896055178,35.774197885968,
    67.004342450348));
#178 = CARTESIAN_POINT('',(-3.29721487673,35.850390110028,
    66.207077972414));
#179 = CARTESIAN_POINT('',(-2.883020107124,35.888564587292,
    65.853906364595));
#180 = CARTESIAN_POINT('',(-2.402891208601,35.926748005208,
    65.539095091892));
#181 = CARTESIAN_POINT('',(-1.862588501427,35.960905130304,
    65.281493513193));
#182 = CARTESIAN_POINT('',(-1.272372934718,35.986480593462,
    65.097337423775));
#183 = CARTESIAN_POINT('',(-0.64587896743,36.,65.));
#184 = CARTESIAN_POINT('',(0.616920303065,36.,65.));
#185 = CARTESIAN_POINT('',(1.217264354364,35.987665752063,
    65.088804674572));
#186 = CARTESIAN_POINT('',(1.78574085653,35.964192554358,65.257822193316
    ));
#187 = CARTESIAN_POINT('',(2.309621608959,35.932524399692,65.49554758075
    ));
#188 = CARTESIAN_POINT('',(2.779067964096,35.896653296659,65.78763198542
    ));
#189 = CARTESIAN_POINT('',(3.188170618242,35.860248249029,
    66.117102806376));
#190 = CARTESIAN_POINT('',(3.969911828666,35.783101065261,66.8988440168)
  );
#191 = CARTESIAN_POINT('',(4.322046207226,35.742145561816,
    67.375503091811));
#192 = CARTESIAN_POINT('',(4.596804814019,35.706821736752,
    67.878695360389));
#193 = CARTESIAN_POINT('',(4.799193810143,35.679250586142,
    68.398654437063));
#194 = CARTESIAN_POINT('',(4.932920036652,35.660494542128,
    68.928605593099));
#195 = CARTESIAN_POINT('',(5.,35.651086939952,69.463824585427));
#196 = CARTESIAN_POINT('',(5.,35.651086939952,70.));
#197 = PCURVE('',#31,#198);
#198 = DEFINITIONAL_REPRESENTATION('',(#199),#250);
#199 = B_SPLINE_CURVE_WITH_KNOTS('',7,(#200,#201,#202,#203,#204,#205,
    #206,#207,#208,#209,#210,#211,#212,#213,#214,#215,#216,#217,#218,
    #219,#220,#221,#222,#223,#224,#225,#226,#227,#228,#229,#230,#231,
    #232,#233,#234,#235,#236,#237,#238,#239,#240,#241,#242,#243,#244,
    #245,#246,#247,#248,#249),.UNSPECIFIED.,.T.,.F.,(8,6,6,6,6,6,6,6,8),
  (0.,0.13398335075,0.250118646247,0.3662539411,0.500237291828,
    0.634220642556,0.750355938011,0.861284185068,1.),.UNSPECIFIED.);
#200 = CARTESIAN_POINT('',(1.431456986037,30.));
#201 = CARTESIAN_POINT('',(1.431456986037,30.516441344279));
#202 = CARTESIAN_POINT('',(1.433202596218,31.032088067567));
#203 = CARTESIAN_POINT('',(1.436684102822,31.543013464956));
#204 = CARTESIAN_POINT('',(1.441946614925,32.044952342163));
#205 = CARTESIAN_POINT('',(1.449073963377,32.531971637641));
#206 = CARTESIAN_POINT('',(1.458179008804,32.99565754965));
#207 = CARTESIAN_POINT('',(1.479083124894,33.792922027664));
#208 = CARTESIAN_POINT('',(1.490636768456,34.146093635294));
#209 = CARTESIAN_POINT('',(1.504014064667,34.460904908108));
#210 = CARTESIAN_POINT('',(1.519048363717,34.718506486879));
#211 = CARTESIAN_POINT('',(1.535452625751,34.902662576193));
#212 = CARTESIAN_POINT('',(1.552855244363,35.));
#213 = CARTESIAN_POINT('',(1.588737409127,35.));
#214 = CARTESIAN_POINT('',(1.606140028199,34.902662574152));
#215 = CARTESIAN_POINT('',(1.622544289277,34.71850649338));
#216 = CARTESIAN_POINT('',(1.63757858946,34.460904899152));
#217 = CARTESIAN_POINT('',(1.650955884875,34.14609364159));
#218 = CARTESIAN_POINT('',(1.662509528748,33.792922025667));
#219 = CARTESIAN_POINT('',(1.683413644786,32.995657549652));
#220 = CARTESIAN_POINT('',(1.692518690213,32.531971637638));
#221 = CARTESIAN_POINT('',(1.699646038664,32.044952342164));
#222 = CARTESIAN_POINT('',(1.704908550768,31.543013464959));
#223 = CARTESIAN_POINT('',(1.708390057371,31.032088067565));
#224 = CARTESIAN_POINT('',(1.710135667553,30.51644134428));
#225 = CARTESIAN_POINT('',(1.710135667553,29.48355865572));
#226 = CARTESIAN_POINT('',(1.708390057371,28.967911932435));
#227 = CARTESIAN_POINT('',(1.704908550768,28.456986535042));
#228 = CARTESIAN_POINT('',(1.699646038664,27.955047657835));
#229 = CARTESIAN_POINT('',(1.692518690213,27.468028362362));
#230 = CARTESIAN_POINT('',(1.683413644786,27.004342450348));
#231 = CARTESIAN_POINT('',(1.662509528698,26.207077972414));
#232 = CARTESIAN_POINT('',(1.650955885132,25.853906364595));
#233 = CARTESIAN_POINT('',(1.637578588921,25.539095091892));
#234 = CARTESIAN_POINT('',(1.622544289875,25.281493513193));
#235 = CARTESIAN_POINT('',(1.606140027841,25.097337423775));
#236 = CARTESIAN_POINT('',(1.588737409224,25.));
#237 = CARTESIAN_POINT('',(1.55365965171,25.));
#238 = CARTESIAN_POINT('',(1.536983420752,25.088804674573));
#239 = CARTESIAN_POINT('',(1.521184227863,25.257822193316));
#240 = CARTESIAN_POINT('',(1.506609192814,25.49554758075));
#241 = CARTESIAN_POINT('',(1.493532676998,25.78763198542));
#242 = CARTESIAN_POINT('',(1.482124342094,26.117102806377));
#243 = CARTESIAN_POINT('',(1.460303823377,26.8988440168));
#244 = CARTESIAN_POINT('',(1.450457869635,27.375503091811));
#245 = CARTESIAN_POINT('',(1.442763311103,27.878695360389));
#246 = CARTESIAN_POINT('',(1.437089536479,28.398654437062));
#247 = CARTESIAN_POINT('',(1.433338552317,28.928605593099));
#248 = CARTESIAN_POINT('',(1.431456986037,29.463824585427));
#249 = CARTESIAN_POINT('',(1.431456986037,30.));
#250 = ( GEOMETRIC_REPRESENTATION_CONTEXT(2) 
PARAMETRIC_REPRESENTATION_CONTEXT() REPRESENTATION_CONTEXT('2D SPACE',''
  ) );
#251 = PCURVE('',#252,#257);
#252 = CYLINDRICAL_SURFACE('',#253,5.);
#253 = AXIS2_PLACEMENT_3D('',#254,#255,#256);
#254 = CARTESIAN_POINT('',(0.,42.5,70.));
#255 = DIRECTION('',(0.,-1.,2.22044604925E-16));
#256 = DIRECTION('',(1.,0.,0.));
#257 = DEFINITIONAL_REPRESENTATION('',(#258),#309);
#258 = B_SPLINE_CURVE_WITH_KNOTS('',7,(#259,#260,#261,#262,#263,#264,
    #265,#266,#267,#268,#269,#270,#271,#272,#273,#274,#275,#276,#277,
    #278,#279,#280,#281,#282,#283,#284,#285,#286,#287,#288,#289,#290,
    #291,#292,#293,#294,#295,#296,#297,#298,#299,#300,#301,#302,#303,
    #304,#305,#306,#307,#308),.UNSPECIFIED.,.F.,.F.,(8,6,6,6,6,6,6,6,8),
  (0.,0.13398335075,0.250118646247,0.3662539411,0.500237291828,
    0.634220642556,0.750355938011,0.861284185068,1.),.UNSPECIFIED.);
#259 = CARTESIAN_POINT('',(0.,6.848913060048));
#260 = CARTESIAN_POINT('',(0.103288268856,6.848913060048));
#261 = CARTESIAN_POINT('',(0.206417397513,6.84018515272));
#262 = CARTESIAN_POINT('',(0.310403344563,6.822776920119));
#263 = CARTESIAN_POINT('',(0.416163211596,6.797150330168));
#264 = CARTESIAN_POINT('',(0.524633403594,6.764228230503));
#265 = CARTESIAN_POINT('',(0.636809024208,6.725802114032));
#266 = CARTESIAN_POINT('',(0.855546689458,6.649609889964));
#267 = CARTESIAN_POINT('',(0.963744195883,6.611435412717));
#268 = CARTESIAN_POINT('',(1.077086219949,6.573251994797));
#269 = CARTESIAN_POINT('',(1.194757981966,6.539094869684));
#270 = CARTESIAN_POINT('',(1.316321772046,6.513519406542));
#271 = CARTESIAN_POINT('',(1.441620533287,6.5));
#272 = CARTESIAN_POINT('',(1.699972119585,6.5));
#273 = CARTESIAN_POINT('',(1.825270884272,6.513519406765));
#274 = CARTESIAN_POINT('',(1.946834666876,6.539094868992));
#275 = CARTESIAN_POINT('',(2.064506438176,6.573251995724));
#276 = CARTESIAN_POINT('',(2.177848455344,6.611435412089));
#277 = CARTESIAN_POINT('',(2.28604596468,6.649609890155));
#278 = CARTESIAN_POINT('',(2.504783629381,6.725802114032));
#279 = CARTESIAN_POINT('',(2.616959249997,6.764228230503));
#280 = CARTESIAN_POINT('',(2.725429441993,6.797150330167));
#281 = CARTESIAN_POINT('',(2.831189309027,6.822776920119));
#282 = CARTESIAN_POINT('',(2.935175256077,6.84018515272));
#283 = CARTESIAN_POINT('',(3.038304384734,6.848913060048));
#284 = CARTESIAN_POINT('',(3.244880922446,6.848913060048));
#285 = CARTESIAN_POINT('',(3.348010051103,6.84018515272));
#286 = CARTESIAN_POINT('',(3.451995998153,6.822776920119));
#287 = CARTESIAN_POINT('',(3.557755865186,6.797150330168));
#288 = CARTESIAN_POINT('',(3.666226057183,6.764228230503));
#289 = CARTESIAN_POINT('',(3.778401677798,6.725802114032));
#290 = CARTESIAN_POINT('',(3.997139343026,6.649609889972));
#291 = CARTESIAN_POINT('',(4.105336849498,6.611435412708));
#292 = CARTESIAN_POINT('',(4.21867887355,6.573251994792));
#293 = CARTESIAN_POINT('',(4.33635063554,6.539094869696));
#294 = CARTESIAN_POINT('',(4.457914425616,6.513519406538));
#295 = CARTESIAN_POINT('',(4.583213186899,6.5));
#296 = CARTESIAN_POINT('',(4.835773040998,6.5));
#297 = CARTESIAN_POINT('',(4.955841773602,6.512334247937));
#298 = CARTESIAN_POINT('',(5.07260539929,6.535807445643));
#299 = CARTESIAN_POINT('',(5.18584291493,6.567475600308));
#300 = CARTESIAN_POINT('',(5.295087753864,6.603346703341));
#301 = CARTESIAN_POINT('',(5.399537969278,6.639751750971));
#302 = CARTESIAN_POINT('',(5.620647773687,6.716898934739));
#303 = CARTESIAN_POINT('',(5.737857349829,6.757854438184));
#304 = CARTESIAN_POINT('',(5.850902444657,6.793178263248));
#305 = CARTESIAN_POINT('',(5.960900900976,6.820749413858));
#306 = CARTESIAN_POINT('',(6.068906729874,6.839505457872));
#307 = CARTESIAN_POINT('',(6.175950224265,6.848913060048));
#308 = CARTESIAN_POINT('',(6.28318530718,6.848913060048));
#309 = ( GEOMETRIC_REPRESENTATION_CONTEXT(2) 
PARAMETRIC_REPRESENTATION_CONTEXT() REPRESENTATION_CONTEXT('2D SPACE',''
  ) );
#310 = FACE_BOUND('',#311,.T.);
#311 = EDGE_LOOP('',(#312));
#312 = ORIENTED_EDGE('',*,*,#313,.T.);
#313 = EDGE_CURVE('',#314,#314,#316,.T.);
#314 = VERTEX_POINT('',#315);
#315 = CARTESIAN_POINT('',(-36.,-1.469576158977E-15,114.));
#316 = SURFACE_CURVE('',#317,(#420,#526),.PCURVE_S1.);
#317 = B_SPLINE_CURVE_WITH_KNOTS('',6,(#318,#319,#320,#321,#322,#323,
    #324,#325,#326,#327,#328,#329,#330,#331,#332,#333,#334,#335,#336,
    #337,#338,#339,#340,#341,#342,#343,#344,#345,#346,#347,#348,#349,
    #350,#351,#352,#353,#354,#355,#356,#357,#358,#359,#360,#361,#362,
    #363,#364,#365,#366,#367,#368,#369,#370,#371,#372,#373,#374,#375,
    #376,#377,#378,#379,#380,#381,#382,#383,#384,#385,#386,#387,#388,
    #389,#390,#391,#392,#393,#394,#395,#396,#397,#398,#399,#400,#401,
    #402,#403,#404,#405,#406,#407,#408,#409,#410,#411,#412,#413,#414,
    #415,#416,#417,#418,#419),.UNSPECIFIED.,.T.,.F.,(7,5,5,5,5,5,5,5,5,5
    ,5,5,5,5,5,5,5,5,5,5,7),(0.,4.72158980804E-02,7.73083309682E-02,
    0.118100973265,0.176155934491,0.249979017769,0.323802101039,
    0.381857066005,0.422649708269,0.468810627064,0.499925603522,
    0.547152490145,0.577251926452,0.618054063197,0.676122539368,
    0.749962803576,0.823803067792,0.88187154022,0.922673676999,
    0.95277311333,1.),.UNSPECIFIED.);
#318 = CARTESIAN_POINT('',(-36.,1.7763568394E-15,114.));
#319 = CARTESIAN_POINT('',(-36.,0.361038987085,114.));
#320 = CARTESIAN_POINT('',(-35.99565509475,0.721243749457,
    114.02606993928));
#321 = CARTESIAN_POINT('',(-35.98700248624,1.076648446851,
    114.07798319601));
#322 = CARTESIAN_POINT('',(-35.97439540444,1.423358761959,
    114.15445759913));
#323 = CARTESIAN_POINT('',(-35.95848096862,1.757757609529,
    114.25318706036));
#324 = CARTESIAN_POINT('',(-35.92830584668,2.279977581547,
    114.44584417937));
#325 = CARTESIAN_POINT('',(-35.91552017986,2.477293398066,
    114.52864529156));
#326 = CARTESIAN_POINT('',(-35.90186216188,2.668349781277,
    114.61864445269));
#327 = CARTESIAN_POINT('',(-35.88750266489,2.852895097211,
    114.71522516377));
#328 = CARTESIAN_POINT('',(-35.87261017677,3.030725958715,
    114.81776462569));
#329 = CARTESIAN_POINT('',(-35.83665216628,3.433438264478,
    115.07185716773));
#330 = CARTESIAN_POINT('',(-35.81526865068,3.65263116015,115.2279150619)
  );
#331 = CARTESIAN_POINT('',(-35.79355399284,3.859318495041,
    115.39253444785));
#332 = CARTESIAN_POINT('',(-35.77182422974,4.053633669703,115.5645948366
    ));
#333 = CARTESIAN_POINT('',(-35.75035224363,4.235765852036,
    115.74310751841));
#334 = CARTESIAN_POINT('',(-35.69950375678,4.648115165996,
    116.18918449311));
#335 = CARTESIAN_POINT('',(-35.67061402676,4.866175238539,
    116.46258455342));
#336 = CARTESIAN_POINT('',(-35.64333965042,5.060916250486,
    116.74511279549));
#337 = CARTESIAN_POINT('',(-35.61815929575,5.233136774104,
    117.03499353123));
#338 = CARTESIAN_POINT('',(-35.59542662541,5.383557750243,
    117.33084013162));
#339 = CARTESIAN_POINT('',(-35.54995100722,5.677025520704,118.0139048674
    ));
#340 = CARTESIAN_POINT('',(-35.52888248321,5.806971347844,
    118.40411078478));
#341 = CARTESIAN_POINT('',(-35.51276109222,5.903671733553,
    118.79966698525));
#342 = CARTESIAN_POINT('',(-35.50190740087,5.967883441628,
    119.19861428979));
#343 = CARTESIAN_POINT('',(-35.49647869859,6.,119.59927311192));
#344 = CARTESIAN_POINT('',(-35.49647869859,6.,120.40072688802));
#345 = CARTESIAN_POINT('',(-35.50190740087,5.967883441635,
    120.80138571028));
#346 = CARTESIAN_POINT('',(-35.51276109222,5.903671733524,
    121.20033301474));
#347 = CARTESIAN_POINT('',(-35.52888248321,5.806971347882,
    121.59588921515));
#348 = CARTESIAN_POINT('',(-35.54995100722,5.677025520685,
    121.98609513263));
#349 = CARTESIAN_POINT('',(-35.5954266267,5.383557741917,122.66915988775
    ));
#350 = CARTESIAN_POINT('',(-35.61815929319,5.23313679269,122.96500643914
    ));
#351 = CARTESIAN_POINT('',(-35.64333965073,5.060916247009,
    123.25488720345));
#352 = CARTESIAN_POINT('',(-35.67061402945,4.866175218309,123.5374154757
    ));
#353 = CARTESIAN_POINT('',(-35.69950375483,4.6481151818,123.81081548978)
  );
#354 = CARTESIAN_POINT('',(-35.75035224363,4.235765852037,
    124.25689248158));
#355 = CARTESIAN_POINT('',(-35.77182422974,4.053633669703,
    124.43540516339));
#356 = CARTESIAN_POINT('',(-35.79355399284,3.859318495041,
    124.60746555214));
#357 = CARTESIAN_POINT('',(-35.81526865068,3.65263116015,124.7720849381)
  );
#358 = CARTESIAN_POINT('',(-35.83665216628,3.433438264478,
    124.92814283226));
#359 = CARTESIAN_POINT('',(-35.88076126901,2.9394376726,125.23983399333)
  );
#360 = CARTESIAN_POINT('',(-35.90333877346,2.660596644318,
    125.39303078769));
#361 = CARTESIAN_POINT('',(-35.92446045357,2.365995791216,
    125.53137444145));
#362 = CARTESIAN_POINT('',(-35.94347205501,2.056791686631,
    125.65246518023));
#363 = CARTESIAN_POINT('',(-35.95974536372,1.734440397156,
    125.75408886374));
#364 = CARTESIAN_POINT('',(-35.98150128831,1.175694206248,
    125.88823195589));
#365 = CARTESIAN_POINT('',(-35.98876362254,0.945755551022,
    125.93242460247));
#366 = CARTESIAN_POINT('',(-35.99434503995,0.711993966709,
    125.96607270064));
#367 = CARTESIAN_POINT('',(-35.99811419198,0.475616089693,
    125.98868381257));
#368 = CARTESIAN_POINT('',(-36.,0.237867037033,126.));
#369 = CARTESIAN_POINT('',(-36.,-0.361038987269,126.));
#370 = CARTESIAN_POINT('',(-35.99565509475,-0.721243749408,
    125.97393006068));
#371 = CARTESIAN_POINT('',(-35.98700248625,-1.076648446671,
    125.92201680401));
#372 = CARTESIAN_POINT('',(-35.97439540445,-1.423358761913,
    125.84554240091));
#373 = CARTESIAN_POINT('',(-35.95848096861,-1.757757609702,
    125.74681293957));
#374 = CARTESIAN_POINT('',(-35.92830584668,-2.279977581544,
    125.55415582062));
#375 = CARTESIAN_POINT('',(-35.91552017986,-2.477293398067,
    125.47135470843));
#376 = CARTESIAN_POINT('',(-35.90186216188,-2.668349781281,
    125.3813555473));
#377 = CARTESIAN_POINT('',(-35.88750266489,-2.852895097212,
    125.28477483622));
#378 = CARTESIAN_POINT('',(-35.87261017677,-3.030725958712,
    125.1822353743));
#379 = CARTESIAN_POINT('',(-35.83665216589,-3.43343826884,124.9281428295
    ));
#380 = CARTESIAN_POINT('',(-35.81526865131,-3.652631153967,
    124.77208494299));
#381 = CARTESIAN_POINT('',(-35.79355399284,-3.859318494485,
    124.60746555183));
#382 = CARTESIAN_POINT('',(-35.77182422911,-4.053633675623,
    124.43540515835));
#383 = CARTESIAN_POINT('',(-35.75035224402,-4.23576584887,124.256892485)
  );
#384 = CARTESIAN_POINT('',(-35.69950375483,-4.6481151818,123.81081548978
    ));
#385 = CARTESIAN_POINT('',(-35.67061402945,-4.866175218309,
    123.5374154757));
#386 = CARTESIAN_POINT('',(-35.64333965073,-5.060916247009,
    123.25488720345));
#387 = CARTESIAN_POINT('',(-35.61815929319,-5.23313679269,
    122.96500643914));
#388 = CARTESIAN_POINT('',(-35.5954266267,-5.383557741917,
    122.66915988775));
#389 = CARTESIAN_POINT('',(-35.54995100722,-5.677025520685,
    121.98609513263));
#390 = CARTESIAN_POINT('',(-35.52888248321,-5.806971347882,
    121.59588921514));
#391 = CARTESIAN_POINT('',(-35.51276109222,-5.903671733525,
    121.20033301474));
#392 = CARTESIAN_POINT('',(-35.50190740087,-5.967883441635,
    120.80138571028));
#393 = CARTESIAN_POINT('',(-35.49647869859,-6.,120.40072688802));
#394 = CARTESIAN_POINT('',(-35.49647869859,-6.,119.59927311192));
#395 = CARTESIAN_POINT('',(-35.50190740087,-5.967883441627,
    119.19861428979));
#396 = CARTESIAN_POINT('',(-35.51276109222,-5.903671733553,
    118.79966698525));
#397 = CARTESIAN_POINT('',(-35.52888248321,-5.806971347844,
    118.40411078478));
#398 = CARTESIAN_POINT('',(-35.54995100722,-5.677025520704,
    118.0139048674));
#399 = CARTESIAN_POINT('',(-35.59542662541,-5.383557750243,
    117.33084013162));
#400 = CARTESIAN_POINT('',(-35.61815929575,-5.233136774104,
    117.03499353123));
#401 = CARTESIAN_POINT('',(-35.64333965042,-5.060916250486,
    116.74511279549));
#402 = CARTESIAN_POINT('',(-35.67061402676,-4.866175238539,
    116.46258455342));
#403 = CARTESIAN_POINT('',(-35.69950375678,-4.648115165996,
    116.18918449311));
#404 = CARTESIAN_POINT('',(-35.75035224402,-4.235765848869,
    115.74310751499));
#405 = CARTESIAN_POINT('',(-35.77182422911,-4.053633675623,
    115.56459484164));
#406 = CARTESIAN_POINT('',(-35.79355399284,-3.859318494485,
    115.39253444816));
#407 = CARTESIAN_POINT('',(-35.81526865131,-3.652631153967,115.227915057
    ));
#408 = CARTESIAN_POINT('',(-35.83665216589,-3.433438268839,
    115.07185717049));
#409 = CARTESIAN_POINT('',(-35.87261017677,-3.030725958712,
    114.81776462569));
#410 = CARTESIAN_POINT('',(-35.88750266489,-2.852895097212,
    114.71522516377));
#411 = CARTESIAN_POINT('',(-35.90186216188,-2.668349781281,
    114.61864445269));
#412 = CARTESIAN_POINT('',(-35.91552017986,-2.477293398067,
    114.52864529156));
#413 = CARTESIAN_POINT('',(-35.92830584668,-2.279977581544,
    114.44584417937));
#414 = CARTESIAN_POINT('',(-35.95848096862,-1.757757609646,
    114.2531870604));
#415 = CARTESIAN_POINT('',(-35.97439540445,-1.423358761928,
    114.1544575991));
#416 = CARTESIAN_POINT('',(-35.98700248625,-1.076648446731,
    114.07798319599));
#417 = CARTESIAN_POINT('',(-35.99565509475,-0.721243749424,
    114.0260699393));
#418 = CARTESIAN_POINT('',(-36.,-0.361038987208,114.));
#419 = CARTESIAN_POINT('',(-36.,1.7763568394E-15,114.));
#420 = PCURVE('',#31,#421);
#421 = DEFINITIONAL_REPRESENTATION('',(#422),#525);
#422 = B_SPLINE_CURVE_WITH_KNOTS('',6,(#423,#424,#425,#426,#427,#428,
    #429,#430,#431,#432,#433,#434,#435,#436,#437,#438,#439,#440,#441,
    #442,#443,#444,#445,#446,#447,#448,#449,#450,#451,#452,#453,#454,
    #455,#456,#457,#458,#459,#460,#461,#462,#463,#464,#465,#466,#467,
    #468,#469,#470,#471,#472,#473,#474,#475,#476,#477,#478,#479,#480,
    #481,#482,#483,#484,#485,#486,#487,#488,#489,#490,#491,#492,#493,
    #494,#495,#496,#497,#498,#499,#500,#501,#502,#503,#504,#505,#506,
    #507,#508,#509,#510,#511,#512,#513,#514,#515,#516,#517,#518,#519,
    #520,#521,#522,#523,#524),.UNSPECIFIED.,.T.,.F.,(7,5,5,5,5,5,5,5,5,5
    ,5,5,5,5,5,5,5,5,5,5,7),(0.,4.72158980804E-02,7.73083309682E-02,
    0.118100973265,0.176155934491,0.249979017769,0.323802101039,
    0.381857066005,0.422649708269,0.468810627064,0.499925603522,
    0.547152490145,0.577251926452,0.618054063197,0.676122539368,
    0.749962803576,0.823803067792,0.88187154022,0.922673676999,
    0.95277311333,1.),.UNSPECIFIED.);
#423 = CARTESIAN_POINT('',(3.14159265359,74.));
#424 = CARTESIAN_POINT('',(3.131563792837,74.));
#425 = CARTESIAN_POINT('',(3.121558104117,74.026069939289));
#426 = CARTESIAN_POINT('',(3.11168394023,74.077983196013));
#427 = CARTESIAN_POINT('',(3.102047680357,74.154457599132));
#428 = CARTESIAN_POINT('',(3.09274878953,74.253187060364));
#429 = CARTESIAN_POINT('',(3.078218482836,74.445844179377));
#430 = CARTESIAN_POINT('',(3.072726127654,74.528645291561));
#431 = CARTESIAN_POINT('',(3.067405631554,74.618644452694));
#432 = CARTESIAN_POINT('',(3.062264017632,74.715225163777));
#433 = CARTESIAN_POINT('',(3.057307054674,74.817764625696));
#434 = CARTESIAN_POINT('',(3.046076097549,75.071857167739));
#435 = CARTESIAN_POINT('',(3.039958706266,75.2279150619));
#436 = CARTESIAN_POINT('',(3.034186012416,75.392534447858));
#437 = CARTESIAN_POINT('',(3.02875487699,75.564594836602));
#438 = CARTESIAN_POINT('',(3.023660685984,75.743107518419));
#439 = CARTESIAN_POINT('',(3.012119778958,76.189184493118));
#440 = CARTESIAN_POINT('',(3.006009871408,76.462584553424));
#441 = CARTESIAN_POINT('',(3.000547793102,76.745112795494));
#442 = CARTESIAN_POINT('',(2.995713106692,77.034993531233));
#443 = CARTESIAN_POINT('',(2.991487333571,77.330840131627));
#444 = CARTESIAN_POINT('',(2.983238158334,78.013904867405));
#445 = CARTESIAN_POINT('',(2.979581505794,78.404110784782));
#446 = CARTESIAN_POINT('',(2.976858314466,78.799666985255));
#447 = CARTESIAN_POINT('',(2.975049356272,79.198614289793));
#448 = CARTESIAN_POINT('',(2.97414457437,79.599273111925));
#449 = CARTESIAN_POINT('',(2.97414457437,80.400726888028));
#450 = CARTESIAN_POINT('',(2.975049356272,80.801385710283));
#451 = CARTESIAN_POINT('',(2.976858314466,81.20033301474));
#452 = CARTESIAN_POINT('',(2.979581505793,81.59588921515));
#453 = CARTESIAN_POINT('',(2.983238158334,81.986095132639));
#454 = CARTESIAN_POINT('',(2.991487333805,82.669159887753));
#455 = CARTESIAN_POINT('',(2.99571310617,82.965006439148));
#456 = CARTESIAN_POINT('',(3.000547793198,83.254887203455));
#457 = CARTESIAN_POINT('',(3.006009871975,83.537415475707));
#458 = CARTESIAN_POINT('',(3.012119778516,83.810815489785));
#459 = CARTESIAN_POINT('',(3.023660685984,84.25689248158));
#460 = CARTESIAN_POINT('',(3.02875487699,84.435405163399));
#461 = CARTESIAN_POINT('',(3.034186012416,84.607465552143));
#462 = CARTESIAN_POINT('',(3.039958706266,84.7720849381));
#463 = CARTESIAN_POINT('',(3.046076097549,84.928142832261));
#464 = CARTESIAN_POINT('',(3.05985292877,85.239833993332));
#465 = CARTESIAN_POINT('',(3.067623601166,85.393030787691));
#466 = CARTESIAN_POINT('',(3.075827401293,85.531374441452));
#467 = CARTESIAN_POINT('',(3.084431900066,85.652465180234));
#468 = CARTESIAN_POINT('',(3.093396905163,85.754088863744));
#469 = CARTESIAN_POINT('',(3.108929393668,85.888231955898));
#470 = CARTESIAN_POINT('',(3.115319591673,85.932424602478));
#471 = CARTESIAN_POINT('',(3.121814523188,85.966072700642));
#472 = CARTESIAN_POINT('',(3.12838109617,85.988683812578));
#473 = CARTESIAN_POINT('',(3.134985235894,86.));
#474 = CARTESIAN_POINT('',(3.151621514347,86.));
#475 = CARTESIAN_POINT('',(3.161627203062,85.973930060685));
#476 = CARTESIAN_POINT('',(3.171501366945,85.922016804019));
#477 = CARTESIAN_POINT('',(3.181137626822,85.845542400912));
#478 = CARTESIAN_POINT('',(3.190436517654,85.746812939573));
#479 = CARTESIAN_POINT('',(3.204966824343,85.554155820625));
#480 = CARTESIAN_POINT('',(3.210459179525,85.471354708439));
#481 = CARTESIAN_POINT('',(3.215779675626,85.381355547305));
#482 = CARTESIAN_POINT('',(3.220921289548,85.284774836222));
#483 = CARTESIAN_POINT('',(3.225878252506,85.182235374306));
#484 = CARTESIAN_POINT('',(3.237109209752,84.928142829509));
#485 = CARTESIAN_POINT('',(3.243226600741,84.772084942997));
#486 = CARTESIAN_POINT('',(3.248999294748,84.607465551831));
#487 = CARTESIAN_POINT('',(3.254430430354,84.435405158356));
#488 = CARTESIAN_POINT('',(3.259524621107,84.256892485006));
#489 = CARTESIAN_POINT('',(3.271065528664,83.810815489785));
#490 = CARTESIAN_POINT('',(3.277175435204,83.537415475707));
#491 = CARTESIAN_POINT('',(3.282637513981,83.254887203455));
#492 = CARTESIAN_POINT('',(3.287472201009,82.965006439148));
#493 = CARTESIAN_POINT('',(3.291697973375,82.669159887752));
#494 = CARTESIAN_POINT('',(3.299947148845,81.986095132639));
#495 = CARTESIAN_POINT('',(3.303603801386,81.595889215149));
#496 = CARTESIAN_POINT('',(3.306326992713,81.200333014741));
#497 = CARTESIAN_POINT('',(3.308135950908,80.801385710283));
#498 = CARTESIAN_POINT('',(3.309040732809,80.400726888028));
#499 = CARTESIAN_POINT('',(3.309040732809,79.599273111926));
#500 = CARTESIAN_POINT('',(3.308135950907,79.198614289793));
#501 = CARTESIAN_POINT('',(3.306326992714,78.799666985255));
#502 = CARTESIAN_POINT('',(3.303603801385,78.404110784782));
#503 = CARTESIAN_POINT('',(3.299947148846,78.013904867405));
#504 = CARTESIAN_POINT('',(3.291697973609,77.330840131626));
#505 = CARTESIAN_POINT('',(3.287472200488,77.034993531233));
#506 = CARTESIAN_POINT('',(3.282637514078,76.745112795494));
#507 = CARTESIAN_POINT('',(3.277175435771,76.462584553424));
#508 = CARTESIAN_POINT('',(3.271065528222,76.189184493119));
#509 = CARTESIAN_POINT('',(3.259524621107,75.743107514993));
#510 = CARTESIAN_POINT('',(3.254430430354,75.564594841644));
#511 = CARTESIAN_POINT('',(3.248999294748,75.392534448169));
#512 = CARTESIAN_POINT('',(3.243226600741,75.227915057003));
#513 = CARTESIAN_POINT('',(3.237109209752,75.07185717049));
#514 = CARTESIAN_POINT('',(3.225878252506,74.817764625694));
#515 = CARTESIAN_POINT('',(3.220921289548,74.715225163778));
#516 = CARTESIAN_POINT('',(3.215779675626,74.618644452695));
#517 = CARTESIAN_POINT('',(3.210459179525,74.528645291561));
#518 = CARTESIAN_POINT('',(3.204966824343,74.445844179375));
#519 = CARTESIAN_POINT('',(3.190436517653,74.253187060406));
#520 = CARTESIAN_POINT('',(3.181137626822,74.154457599102));
#521 = CARTESIAN_POINT('',(3.171501366946,74.077983195992));
#522 = CARTESIAN_POINT('',(3.161627203062,74.026069939306));
#523 = CARTESIAN_POINT('',(3.151621514346,74.));
#524 = CARTESIAN_POINT('',(3.14159265359,74.));
#525 = ( GEOMETRIC_REPRESENTATION_CONTEXT(2) 
PARAMETRIC_REPRESENTATION_CONTEXT() REPRESENTATION_CONTEXT('2D SPACE',''
  ) );
#526 = PCURVE('',#527,#532);
#527 = CYLINDRICAL_SURFACE('',#528,6.);
#528 = AXIS2_PLACEMENT_3D('',#529,#530,#531);
#529 = CARTESIAN_POINT('',(-45.,0.,120.));
#530 = DIRECTION('',(1.,0.,2.22044604925E-16));
#531 = DIRECTION('',(2.22044604925E-16,0.,-1.));
#532 = DEFINITIONAL_REPRESENTATION('',(#533),#636);
#533 = B_SPLINE_CURVE_WITH_KNOTS('',6,(#534,#535,#536,#537,#538,#539,
    #540,#541,#542,#543,#544,#545,#546,#547,#548,#549,#550,#551,#552,
    #553,#554,#555,#556,#557,#558,#559,#560,#561,#562,#563,#564,#565,
    #566,#567,#568,#569,#570,#571,#572,#573,#574,#575,#576,#577,#578,
    #579,#580,#581,#582,#583,#584,#585,#586,#587,#588,#589,#590,#591,
    #592,#593,#594,#595,#596,#597,#598,#599,#600,#601,#602,#603,#604,
    #605,#606,#607,#608,#609,#610,#611,#612,#613,#614,#615,#616,#617,
    #618,#619,#620,#621,#622,#623,#624,#625,#626,#627,#628,#629,#630,
    #631,#632,#633,#634,#635),.UNSPECIFIED.,.F.,.F.,(7,5,5,5,5,5,5,5,5,5
    ,5,5,5,5,5,5,5,5,5,5,7),(0.,4.72158980804E-02,7.73083309682E-02,
    0.118100973265,0.176155934491,0.249979017769,0.323802101039,
    0.381857066005,0.422649708269,0.468810627064,0.499925603522,
    0.547152490145,0.577251926452,0.618054063197,0.676122539368,
    0.749962803576,0.823803067792,0.88187154022,0.922673676999,
    0.95277311333,1.),.UNSPECIFIED.);
#534 = CARTESIAN_POINT('',(0.,9.));
#535 = CARTESIAN_POINT('',(6.017316451419E-02,9.));
#536 = CARTESIAN_POINT('',(0.120207285683,9.004344905245));
#537 = CARTESIAN_POINT('',(0.179833613416,9.012997513751));
#538 = CARTESIAN_POINT('',(0.238786001661,9.025604595555));
#539 = CARTESIAN_POINT('',(0.296769669807,9.041519031371));
#540 = CARTESIAN_POINT('',(0.389540364516,9.071694153319));
#541 = CARTESIAN_POINT('',(0.425170185661,9.084479820132));
#542 = CARTESIAN_POINT('',(0.460321199388,9.098137838117));
#543 = CARTESIAN_POINT('',(0.494992058525,9.112497335101));
#544 = CARTESIAN_POINT('',(0.529177557539,9.127389823221));
#545 = CARTESIAN_POINT('',(0.608539635863,9.163347833718));
#546 = CARTESIAN_POINT('',(0.653315083533,9.184731349311));
#547 = CARTESIAN_POINT('',(0.697260447815,9.206446007156));
#548 = CARTESIAN_POINT('',(0.74043341609,9.22817577026));
#549 = CARTESIAN_POINT('',(0.782886246366,9.249647756362));
#550 = CARTESIAN_POINT('',(0.884130810566,9.300496243213));
#551 = CARTESIAN_POINT('',(0.942261621881,9.32938597324));
#552 = CARTESIAN_POINT('',(0.999248748079,9.356660349571));
#553 = CARTESIAN_POINT('',(1.055261968372,9.38184070425));
#554 = CARTESIAN_POINT('',(1.110461562682,9.404573374582));
#555 = CARTESIAN_POINT('',(1.234367975121,9.450048992775));
#556 = CARTESIAN_POINT('',(1.302670211809,9.471117516781));
#557 = CARTESIAN_POINT('',(1.370204804112,9.487238907778));
#558 = CARTESIAN_POINT('',(1.437231981307,9.498092599126));
#559 = CARTESIAN_POINT('',(1.504008512116,9.503521301402));
#560 = CARTESIAN_POINT('',(1.637584141466,9.503521301402));
#561 = CARTESIAN_POINT('',(1.704360672295,9.498092599128));
#562 = CARTESIAN_POINT('',(1.771387849478,9.487238907774));
#563 = CARTESIAN_POINT('',(1.838922441769,9.471117516787));
#564 = CARTESIAN_POINT('',(1.907224678477,9.450048992772));
#565 = CARTESIAN_POINT('',(2.031131094423,9.404573373292));
#566 = CARTESIAN_POINT('',(2.086330679319,9.381840706803));
#567 = CARTESIAN_POINT('',(2.142343905682,9.356660349264));
#568 = CARTESIAN_POINT('',(2.19933103769,9.329385970542));
#569 = CARTESIAN_POINT('',(2.257461839144,9.300496245162));
#570 = CARTESIAN_POINT('',(2.358706407224,9.249647756362));
#571 = CARTESIAN_POINT('',(2.4011592375,9.22817577026));
#572 = CARTESIAN_POINT('',(2.444332205775,9.206446007156));
#573 = CARTESIAN_POINT('',(2.488277570057,9.184731349311));
#574 = CARTESIAN_POINT('',(2.533053017726,9.163347833718));
#575 = CARTESIAN_POINT('',(2.630405179813,9.119238730982));
#576 = CARTESIAN_POINT('',(2.683333688821,9.096661226533));
#577 = CARTESIAN_POINT('',(2.737411477482,9.075539546427));
#578 = CARTESIAN_POINT('',(2.792569669785,9.056527944985));
#579 = CARTESIAN_POINT('',(2.848764487494,9.040254636273));
#580 = CARTESIAN_POINT('',(2.944534999516,9.01849871169));
#581 = CARTESIAN_POINT('',(2.983518669107,9.01123637746));
#582 = CARTESIAN_POINT('',(3.022814831404,9.005654960046));
#583 = CARTESIAN_POINT('',(3.062323307661,9.001885808017));
#584 = CARTESIAN_POINT('',(3.101948147418,9.));
#585 = CARTESIAN_POINT('',(3.201765818135,9.));
#586 = CARTESIAN_POINT('',(3.261799939265,9.00434490525));
#587 = CARTESIAN_POINT('',(3.321426266976,9.012997513745));
#588 = CARTESIAN_POINT('',(3.380378655241,9.025604595548));
#589 = CARTESIAN_POINT('',(3.438362323428,9.041519031381));
#590 = CARTESIAN_POINT('',(3.531133018105,9.071694153319));
#591 = CARTESIAN_POINT('',(3.566762839251,9.084479820132));
#592 = CARTESIAN_POINT('',(3.601913852978,9.098137838117));
#593 = CARTESIAN_POINT('',(3.636584712115,9.112497335101));
#594 = CARTESIAN_POINT('',(3.670770211128,9.127389823221));
#595 = CARTESIAN_POINT('',(3.750132290313,9.163347834108));
#596 = CARTESIAN_POINT('',(3.794907735799,9.184731348681));
#597 = CARTESIAN_POINT('',(3.838853101366,9.206446007156));
#598 = CARTESIAN_POINT('',(3.882026070985,9.22817577089));
#599 = CARTESIAN_POINT('',(3.924478899178,9.249647755971));
#600 = CARTESIAN_POINT('',(4.025723468036,9.300496245162));
#601 = CARTESIAN_POINT('',(4.08385426949,9.329385970542));
#602 = CARTESIAN_POINT('',(4.140841401498,9.356660349264));
#603 = CARTESIAN_POINT('',(4.196854627861,9.381840706803));
#604 = CARTESIAN_POINT('',(4.252054212756,9.404573373292));
#605 = CARTESIAN_POINT('',(4.375960628703,9.450048992772));
#606 = CARTESIAN_POINT('',(4.444262865411,9.471117516787));
#607 = CARTESIAN_POINT('',(4.511797457701,9.487238907774));
#608 = CARTESIAN_POINT('',(4.578824634885,9.498092599128));
#609 = CARTESIAN_POINT('',(4.645601165713,9.503521301402));
#610 = CARTESIAN_POINT('',(4.779176795064,9.503521301402));
#611 = CARTESIAN_POINT('',(4.845953325872,9.498092599126));
#612 = CARTESIAN_POINT('',(4.912980503068,9.487238907778));
#613 = CARTESIAN_POINT('',(4.980515095371,9.471117516781));
#614 = CARTESIAN_POINT('',(5.048817332059,9.450048992775));
#615 = CARTESIAN_POINT('',(5.172723744498,9.404573374582));
#616 = CARTESIAN_POINT('',(5.227923338807,9.38184070425));
#617 = CARTESIAN_POINT('',(5.283936559101,9.356660349571));
#618 = CARTESIAN_POINT('',(5.340923685299,9.32938597324));
#619 = CARTESIAN_POINT('',(5.399054496614,9.300496243213));
#620 = CARTESIAN_POINT('',(5.500299061591,9.249647755971));
#621 = CARTESIAN_POINT('',(5.542751889785,9.22817577089));
#622 = CARTESIAN_POINT('',(5.585924859403,9.206446007156));
#623 = CARTESIAN_POINT('',(5.62987022497,9.184731348681));
#624 = CARTESIAN_POINT('',(5.674645670457,9.163347834108));
#625 = CARTESIAN_POINT('',(5.754007749641,9.127389823221));
#626 = CARTESIAN_POINT('',(5.788193248654,9.112497335101));
#627 = CARTESIAN_POINT('',(5.822864107791,9.098137838117));
#628 = CARTESIAN_POINT('',(5.858015121518,9.084479820132));
#629 = CARTESIAN_POINT('',(5.893644942665,9.071694153319));
#630 = CARTESIAN_POINT('',(5.986415637352,9.041519031377));
#631 = CARTESIAN_POINT('',(6.044399305525,9.02560459555));
#632 = CARTESIAN_POINT('',(6.103351693784,9.012997513747));
#633 = CARTESIAN_POINT('',(6.162978021502,9.004344905248));
#634 = CARTESIAN_POINT('',(6.223012142645,9.));
#635 = CARTESIAN_POINT('',(6.28318530718,9.));
#636 = ( GEOMETRIC_REPRESENTATION_CONTEXT(2) 
PARAMETRIC_REPRESENTATION_CONTEXT() REPRESENTATION_CONTEXT('2D SPACE',''
  ) );
#637 = ADVANCED_FACE('',(#638,#641),#43,.F.);
#638 = FACE_BOUND('',#639,.F.);
#639 = EDGE_LOOP('',(#640));
#640 = ORIENTED_EDGE('',*,*,#21,.T.);
#641 = FACE_BOUND('',#642,.F.);
#642 = EDGE_LOOP('',(#643));
#643 = ORIENTED_EDGE('',*,*,#644,.F.);
#644 = EDGE_CURVE('',#645,#645,#647,.T.);
#645 = VERTEX_POINT('',#646);
#646 = CARTESIAN_POINT('',(21.5,-5.265981236334E-15,40.));
#647 = SURFACE_CURVE('',#648,(#653,#660),.PCURVE_S1.);
#648 = CIRCLE('',#649,21.5);
#649 = AXIS2_PLACEMENT_3D('',#650,#651,#652);
#650 = CARTESIAN_POINT('',(0.,0.,40.));
#651 = DIRECTION('',(0.,0.,1.));
#652 = DIRECTION('',(1.,0.,-0.));
#653 = PCURVE('',#43,#654);
#654 = DEFINITIONAL_REPRESENTATION('',(#655),#659);
#655 = CIRCLE('',#656,21.5);
#656 = AXIS2_PLACEMENT_2D('',#657,#658);
#657 = CARTESIAN_POINT('',(0.,0.));
#658 = DIRECTION('',(1.,0.));
#659 = ( GEOMETRIC_REPRESENTATION_CONTEXT(2) 
PARAMETRIC_REPRESENTATION_CONTEXT() REPRESENTATION_CONTEXT('2D SPACE',''
  ) );
#660 = PCURVE('',#661,#666);
#661 = CYLINDRICAL_SURFACE('',#662,21.5);
#662 = AXIS2_PLACEMENT_3D('',#663,#664,#665);
#663 = CARTESIAN_POINT('',(0.,0.,39.995));
#664 = DIRECTION('',(0.,0.,1.));
#665 = DIRECTION('',(1.,0.,-0.));
#666 = DEFINITIONAL_REPRESENTATION('',(#667),#671);
#667 = LINE('',#668,#669);
#668 = CARTESIAN_POINT('',(0.,5.000000000003E-03));
#669 = VECTOR('',#670,1.);
#670 = DIRECTION('',(1.,0.));
#671 = ( GEOMETRIC_REPRESENTATION_CONTEXT(2) 
PARAMETRIC_REPRESENTATION_CONTEXT() REPRESENTATION_CONTEXT('2D SPACE',''
  ) );
#672 = ADVANCED_FACE('',(#673,#676),#127,.T.);
#673 = FACE_BOUND('',#674,.T.);
#674 = EDGE_LOOP('',(#675));
#675 = ORIENTED_EDGE('',*,*,#78,.T.);
#676 = FACE_BOUND('',#677,.T.);
#677 = EDGE_LOOP('',(#678,#713,#739));
#678 = ORIENTED_EDGE('',*,*,#679,.F.);
#679 = EDGE_CURVE('',#680,#682,#684,.T.);
#680 = VERTEX_POINT('',#681);
#681 = CARTESIAN_POINT('',(24.248711305964,-22.38302928559,136.));
#682 = VERTEX_POINT('',#683);
#683 = CARTESIAN_POINT('',(33.,-8.082668874373E-15,130.94744111674));
#684 = SURFACE_CURVE('',#685,(#690,#697),.PCURVE_S1.);
#685 = ELLIPSE('',#686,38.105117766515,33.);
#686 = AXIS2_PLACEMENT_3D('',#687,#688,#689);
#687 = CARTESIAN_POINT('',(0.,0.,150.));
#688 = DIRECTION('',(0.5,0.,0.866025403784));
#689 = DIRECTION('',(-0.866025403784,0.,0.5));
#690 = PCURVE('',#127,#691);
#691 = DEFINITIONAL_REPRESENTATION('',(#692),#696);
#692 = ELLIPSE('',#693,38.105117766515,33.);
#693 = AXIS2_PLACEMENT_2D('',#694,#695);
#694 = CARTESIAN_POINT('',(200.,200.));
#695 = DIRECTION('',(-1.,0.));
#696 = ( GEOMETRIC_REPRESENTATION_CONTEXT(2) 
PARAMETRIC_REPRESENTATION_CONTEXT() REPRESENTATION_CONTEXT('2D SPACE',''
  ) );
#697 = PCURVE('',#698,#703);
#698 = CYLINDRICAL_SURFACE('',#699,33.);
#699 = AXIS2_PLACEMENT_3D('',#700,#701,#702);
#700 = CARTESIAN_POINT('',(0.,0.,56.));
#701 = DIRECTION('',(0.,0.,1.));
#702 = DIRECTION('',(1.,0.,-0.));
#703 = DEFINITIONAL_REPRESENTATION('',(#704),#712);
#704 = B_SPLINE_CURVE_WITH_KNOTS('',6,(#705,#706,#707,#708,#709,#710,
    #711),.UNSPECIFIED.,.F.,.F.,(7,7),(2.396181960447,3.14159265359),
  .PIECEWISE_BEZIER_KNOTS.);
#705 = CARTESIAN_POINT('',(5.537774614037,80.0000006));
#706 = CARTESIAN_POINT('',(5.66200972956,78.394529007141));
#707 = CARTESIAN_POINT('',(5.786244845084,77.048355818933));
#708 = CARTESIAN_POINT('',(5.910479960608,76.006075703868));
#709 = CARTESIAN_POINT('',(6.034715076132,75.300317143969));
#710 = CARTESIAN_POINT('',(6.158950191656,74.947441116742));
#711 = CARTESIAN_POINT('',(6.28318530718,74.947441116742));
#712 = ( GEOMETRIC_REPRESENTATION_CONTEXT(2) 
PARAMETRIC_REPRESENTATION_CONTEXT() REPRESENTATION_CONTEXT('2D SPACE',''
  ) );
#713 = ORIENTED_EDGE('',*,*,#714,.F.);
#714 = EDGE_CURVE('',#715,#680,#717,.T.);
#715 = VERTEX_POINT('',#716);
#716 = CARTESIAN_POINT('',(24.248711305964,22.383029285599,136.));
#717 = SURFACE_CURVE('',#718,(#722,#728),.PCURVE_S1.);
#718 = LINE('',#719,#720);
#719 = CARTESIAN_POINT('',(24.248711305964,-100.,136.));
#720 = VECTOR('',#721,1.);
#721 = DIRECTION('',(0.,-1.,0.));
#722 = PCURVE('',#127,#723);
#723 = DEFINITIONAL_REPRESENTATION('',(#724),#727);
#724 = B_SPLINE_CURVE_WITH_KNOTS('',1,(#725,#726),.UNSPECIFIED.,.F.,.F.,
  (2,2),(-133.,-67.),.PIECEWISE_BEZIER_KNOTS.);
#725 = CARTESIAN_POINT('',(228.,233.));
#726 = CARTESIAN_POINT('',(228.,167.));
#727 = ( GEOMETRIC_REPRESENTATION_CONTEXT(2) 
PARAMETRIC_REPRESENTATION_CONTEXT() REPRESENTATION_CONTEXT('2D SPACE',''
  ) );
#728 = PCURVE('',#729,#734);
#729 = PLANE('',#730);
#730 = AXIS2_PLACEMENT_3D('',#731,#732,#733);
#731 = CARTESIAN_POINT('',(0.,0.,136.));
#732 = DIRECTION('',(0.,0.,1.));
#733 = DIRECTION('',(1.,0.,-0.));
#734 = DEFINITIONAL_REPRESENTATION('',(#735),#738);
#735 = B_SPLINE_CURVE_WITH_KNOTS('',1,(#736,#737),.UNSPECIFIED.,.F.,.F.,
  (2,2),(-133.,-67.),.PIECEWISE_BEZIER_KNOTS.);
#736 = CARTESIAN_POINT('',(24.248711305964,33.));
#737 = CARTESIAN_POINT('',(24.248711305964,-33.));
#738 = ( GEOMETRIC_REPRESENTATION_CONTEXT(2) 
PARAMETRIC_REPRESENTATION_CONTEXT() REPRESENTATION_CONTEXT('2D SPACE',''
  ) );
#739 = ORIENTED_EDGE('',*,*,#740,.F.);
#740 = EDGE_CURVE('',#682,#715,#741,.T.);
#741 = SURFACE_CURVE('',#742,(#747,#754),.PCURVE_S1.);
#742 = ELLIPSE('',#743,38.105117766515,33.);
#743 = AXIS2_PLACEMENT_3D('',#744,#745,#746);
#744 = CARTESIAN_POINT('',(0.,0.,150.));
#745 = DIRECTION('',(0.5,0.,0.866025403784));
#746 = DIRECTION('',(-0.866025403784,0.,0.5));
#747 = PCURVE('',#127,#748);
#748 = DEFINITIONAL_REPRESENTATION('',(#749),#753);
#749 = ELLIPSE('',#750,38.105117766515,33.);
#750 = AXIS2_PLACEMENT_2D('',#751,#752);
#751 = CARTESIAN_POINT('',(200.,200.));
#752 = DIRECTION('',(-1.,0.));
#753 = ( GEOMETRIC_REPRESENTATION_CONTEXT(2) 
PARAMETRIC_REPRESENTATION_CONTEXT() REPRESENTATION_CONTEXT('2D SPACE',''
  ) );
#754 = PCURVE('',#698,#755);
#755 = DEFINITIONAL_REPRESENTATION('',(#756),#764);
#756 = B_SPLINE_CURVE_WITH_KNOTS('',6,(#757,#758,#759,#760,#761,#762,
    #763),.UNSPECIFIED.,.F.,.F.,(7,7),(3.14159265359,3.887003346733),
  .PIECEWISE_BEZIER_KNOTS.);
#757 = CARTESIAN_POINT('',(-8.881784197001E-16,74.947441116742));
#758 = CARTESIAN_POINT('',(0.124235115524,74.947441116742));
#759 = CARTESIAN_POINT('',(0.248470231048,75.300317143973));
#760 = CARTESIAN_POINT('',(0.372705346571,76.006075703866));
#761 = CARTESIAN_POINT('',(0.496940462095,77.048355818936));
#762 = CARTESIAN_POINT('',(0.621175577619,78.394529007141));
#763 = CARTESIAN_POINT('',(0.745410693143,80.0000006));
#764 = ( GEOMETRIC_REPRESENTATION_CONTEXT(2) 
PARAMETRIC_REPRESENTATION_CONTEXT() REPRESENTATION_CONTEXT('2D SPACE',''
  ) );
#765 = ADVANCED_FACE('',(#766),#252,.T.);
#766 = FACE_BOUND('',#767,.T.);
#767 = EDGE_LOOP('',(#768,#769,#792,#819));
#768 = ORIENTED_EDGE('',*,*,#142,.F.);
#769 = ORIENTED_EDGE('',*,*,#770,.F.);
#770 = EDGE_CURVE('',#771,#143,#773,.T.);
#771 = VERTEX_POINT('',#772);
#772 = CARTESIAN_POINT('',(5.,42.5,70.));
#773 = SEAM_CURVE('',#774,(#778,#785),.PCURVE_S1.);
#774 = LINE('',#775,#776);
#775 = CARTESIAN_POINT('',(5.,42.5,70.));
#776 = VECTOR('',#777,1.);
#777 = DIRECTION('',(0.,-1.,2.22044604925E-16));
#778 = PCURVE('',#252,#779);
#779 = DEFINITIONAL_REPRESENTATION('',(#780),#784);
#780 = LINE('',#781,#782);
#781 = CARTESIAN_POINT('',(6.28318530718,-0.));
#782 = VECTOR('',#783,1.);
#783 = DIRECTION('',(0.,1.));
#784 = ( GEOMETRIC_REPRESENTATION_CONTEXT(2) 
PARAMETRIC_REPRESENTATION_CONTEXT() REPRESENTATION_CONTEXT('2D SPACE',''
  ) );
#785 = PCURVE('',#252,#786);
#786 = DEFINITIONAL_REPRESENTATION('',(#787),#791);
#787 = LINE('',#788,#789);
#788 = CARTESIAN_POINT('',(0.,-0.));
#789 = VECTOR('',#790,1.);
#790 = DIRECTION('',(0.,1.));
#791 = ( GEOMETRIC_REPRESENTATION_CONTEXT(2) 
PARAMETRIC_REPRESENTATION_CONTEXT() REPRESENTATION_CONTEXT('2D SPACE',''
  ) );
#792 = ORIENTED_EDGE('',*,*,#793,.T.);
#793 = EDGE_CURVE('',#771,#771,#794,.T.);
#794 = SURFACE_CURVE('',#795,(#800,#807),.PCURVE_S1.);
#795 = CIRCLE('',#796,5.);
#796 = AXIS2_PLACEMENT_3D('',#797,#798,#799);
#797 = CARTESIAN_POINT('',(0.,42.5,70.));
#798 = DIRECTION('',(0.,-1.,2.22044604925E-16));
#799 = DIRECTION('',(1.,0.,0.));
#800 = PCURVE('',#252,#801);
#801 = DEFINITIONAL_REPRESENTATION('',(#802),#806);
#802 = LINE('',#803,#804);
#803 = CARTESIAN_POINT('',(0.,0.));
#804 = VECTOR('',#805,1.);
#805 = DIRECTION('',(1.,0.));
#806 = ( GEOMETRIC_REPRESENTATION_CONTEXT(2) 
PARAMETRIC_REPRESENTATION_CONTEXT() REPRESENTATION_CONTEXT('2D SPACE',''
  ) );
#807 = PCURVE('',#808,#813);
#808 = PLANE('',#809);
#809 = AXIS2_PLACEMENT_3D('',#810,#811,#812);
#810 = CARTESIAN_POINT('',(0.,42.5,70.));
#811 = DIRECTION('',(0.,-1.,2.22044604925E-16));
#812 = DIRECTION('',(1.,0.,0.));
#813 = DEFINITIONAL_REPRESENTATION('',(#814),#818);
#814 = CIRCLE('',#815,5.);
#815 = AXIS2_PLACEMENT_2D('',#816,#817);
#816 = CARTESIAN_POINT('',(0.,0.));
#817 = DIRECTION('',(1.,0.));
#818 = ( GEOMETRIC_REPRESENTATION_CONTEXT(2) 
PARAMETRIC_REPRESENTATION_CONTEXT() REPRESENTATION_CONTEXT('2D SPACE',''
  ) );
#819 = ORIENTED_EDGE('',*,*,#770,.T.);
#820 = ADVANCED_FACE('',(#821),#527,.T.);
#821 = FACE_BOUND('',#822,.T.);
#822 = EDGE_LOOP('',(#823,#824,#847,#874));
#823 = ORIENTED_EDGE('',*,*,#313,.F.);
#824 = ORIENTED_EDGE('',*,*,#825,.F.);
#825 = EDGE_CURVE('',#826,#314,#828,.T.);
#826 = VERTEX_POINT('',#827);
#827 = CARTESIAN_POINT('',(-45.,-1.469576158977E-15,114.));
#828 = SEAM_CURVE('',#829,(#833,#840),.PCURVE_S1.);
#829 = LINE('',#830,#831);
#830 = CARTESIAN_POINT('',(-45.,-1.469576158977E-15,114.));
#831 = VECTOR('',#832,1.);
#832 = DIRECTION('',(1.,0.,2.22044604925E-16));
#833 = PCURVE('',#527,#834);
#834 = DEFINITIONAL_REPRESENTATION('',(#835),#839);
#835 = LINE('',#836,#837);
#836 = CARTESIAN_POINT('',(6.28318530718,-0.));
#837 = VECTOR('',#838,1.);
#838 = DIRECTION('',(0.,1.));
#839 = ( GEOMETRIC_REPRESENTATION_CONTEXT(2) 
PARAMETRIC_REPRESENTATION_CONTEXT() REPRESENTATION_CONTEXT('2D SPACE',''
  ) );
#840 = PCURVE('',#527,#841);
#841 = DEFINITIONAL_REPRESENTATION('',(#842),#846);
#842 = LINE('',#843,#844);
#843 = CARTESIAN_POINT('',(0.,-0.));
#844 = VECTOR('',#845,1.);
#845 = DIRECTION('',(0.,1.));
#846 = ( GEOMETRIC_REPRESENTATION_CONTEXT(2) 
PARAMETRIC_REPRESENTATION_CONTEXT() REPRESENTATION_CONTEXT('2D SPACE',''
  ) );
#847 = ORIENTED_EDGE('',*,*,#848,.T.);
#848 = EDGE_CURVE('',#826,#826,#849,.T.);
#849 = SURFACE_CURVE('',#850,(#855,#862),.PCURVE_S1.);
#850 = CIRCLE('',#851,6.);
#851 = AXIS2_PLACEMENT_3D('',#852,#853,#854);
#852 = CARTESIAN_POINT('',(-45.,0.,120.));
#853 = DIRECTION('',(1.,-0.,2.22044604925E-16));
#854 = DIRECTION('',(2.22044604925E-16,0.,-1.));
#855 = PCURVE('',#527,#856);
#856 = DEFINITIONAL_REPRESENTATION('',(#857),#861);
#857 = LINE('',#858,#859);
#858 = CARTESIAN_POINT('',(0.,0.));
#859 = VECTOR('',#860,1.);
#860 = DIRECTION('',(1.,0.));
#861 = ( GEOMETRIC_REPRESENTATION_CONTEXT(2) 
PARAMETRIC_REPRESENTATION_CONTEXT() REPRESENTATION_CONTEXT('2D SPACE',''
  ) );
#862 = PCURVE('',#863,#868);
#863 = PLANE('',#864);
#864 = AXIS2_PLACEMENT_3D('',#865,#866,#867);
#865 = CARTESIAN_POINT('',(-45.,0.,120.));
#866 = DIRECTION('',(1.,0.,2.22044604925E-16));
#867 = DIRECTION('',(2.22044604925E-16,0.,-1.));
#868 = DEFINITIONAL_REPRESENTATION('',(#869),#873);
#869 = CIRCLE('',#870,6.);
#870 = AXIS2_PLACEMENT_2D('',#871,#872);
#871 = CARTESIAN_POINT('',(0.,0.));
#872 = DIRECTION('',(1.,0.));
#873 = ( GEOMETRIC_REPRESENTATION_CONTEXT(2) 
PARAMETRIC_REPRESENTATION_CONTEXT() REPRESENTATION_CONTEXT('2D SPACE',''
  ) );
#874 = ORIENTED_EDGE('',*,*,#825,.T.);
#875 = ADVANCED_FACE('',(#876),#661,.F.);
#876 = FACE_BOUND('',#877,.F.);
#877 = EDGE_LOOP('',(#878,#901,#928,#929));
#878 = ORIENTED_EDGE('',*,*,#879,.T.);
#879 = EDGE_CURVE('',#645,#880,#882,.T.);
#880 = VERTEX_POINT('',#881);
#881 = CARTESIAN_POINT('',(21.5,-5.265981236334E-15,52.005));
#882 = SEAM_CURVE('',#883,(#887,#894),.PCURVE_S1.);
#883 = LINE('',#884,#885);
#884 = CARTESIAN_POINT('',(21.5,-5.265981236334E-15,39.995));
#885 = VECTOR('',#886,1.);
#886 = DIRECTION('',(0.,0.,1.));
#887 = PCURVE('',#661,#888);
#888 = DEFINITIONAL_REPRESENTATION('',(#889),#893);
#889 = LINE('',#890,#891);
#890 = CARTESIAN_POINT('',(6.28318530718,-0.));
#891 = VECTOR('',#892,1.);
#892 = DIRECTION('',(0.,1.));
#893 = ( GEOMETRIC_REPRESENTATION_CONTEXT(2) 
PARAMETRIC_REPRESENTATION_CONTEXT() REPRESENTATION_CONTEXT('2D SPACE',''
  ) );
#894 = PCURVE('',#661,#895);
#895 = DEFINITIONAL_REPRESENTATION('',(#896),#900);
#896 = LINE('',#897,#898);
#897 = CARTESIAN_POINT('',(0.,-0.));
#898 = VECTOR('',#899,1.);
#899 = DIRECTION('',(0.,1.));
#900 = ( GEOMETRIC_REPRESENTATION_CONTEXT(2) 
PARAMETRIC_REPRESENTATION_CONTEXT() REPRESENTATION_CONTEXT('2D SPACE',''
  ) );
#901 = ORIENTED_EDGE('',*,*,#902,.F.);
#902 = EDGE_CURVE('',#880,#880,#903,.T.);
#903 = SURFACE_CURVE('',#904,(#909,#916),.PCURVE_S1.);
#904 = CIRCLE('',#905,21.5);
#905 = AXIS2_PLACEMENT_3D('',#906,#907,#908);
#906 = CARTESIAN_POINT('',(0.,0.,52.005));
#907 = DIRECTION('',(0.,0.,1.));
#908 = DIRECTION('',(1.,0.,-0.));
#909 = PCURVE('',#661,#910);
#910 = DEFINITIONAL_REPRESENTATION('',(#911),#915);
#911 = LINE('',#912,#913);
#912 = CARTESIAN_POINT('',(0.,12.01));
#913 = VECTOR('',#914,1.);
#914 = DIRECTION('',(1.,0.));
#915 = ( GEOMETRIC_REPRESENTATION_CONTEXT(2) 
PARAMETRIC_REPRESENTATION_CONTEXT() REPRESENTATION_CONTEXT('2D SPACE',''
  ) );
#916 = PCURVE('',#917,#922);
#917 = PLANE('',#918);
#918 = AXIS2_PLACEMENT_3D('',#919,#920,#921);
#919 = CARTESIAN_POINT('',(0.,0.,52.005));
#920 = DIRECTION('',(0.,0.,1.));
#921 = DIRECTION('',(1.,0.,-0.));
#922 = DEFINITIONAL_REPRESENTATION('',(#923),#927);
#923 = CIRCLE('',#924,21.5);
#924 = AXIS2_PLACEMENT_2D('',#925,#926);
#925 = CARTESIAN_POINT('',(0.,0.));
#926 = DIRECTION('',(1.,0.));
#927 = ( GEOMETRIC_REPRESENTATION_CONTEXT(2) 
PARAMETRIC_REPRESENTATION_CONTEXT() REPRESENTATION_CONTEXT('2D SPACE',''
  ) );
#928 = ORIENTED_EDGE('',*,*,#879,.F.);
#929 = ORIENTED_EDGE('',*,*,#644,.T.);
#930 = ADVANCED_FACE('',(#931),#698,.F.);
#931 = FACE_BOUND('',#932,.F.);
#932 = EDGE_LOOP('',(#933,#955,#956,#979,#1006,#1007));
#933 = ORIENTED_EDGE('',*,*,#934,.F.);
#934 = EDGE_CURVE('',#715,#680,#935,.T.);
#935 = SURFACE_CURVE('',#936,(#941,#948),.PCURVE_S1.);
#936 = CIRCLE('',#937,33.);
#937 = AXIS2_PLACEMENT_3D('',#938,#939,#940);
#938 = CARTESIAN_POINT('',(0.,0.,136.));
#939 = DIRECTION('',(0.,0.,1.));
#940 = DIRECTION('',(1.,0.,-0.));
#941 = PCURVE('',#698,#942);
#942 = DEFINITIONAL_REPRESENTATION('',(#943),#947);
#943 = LINE('',#944,#945);
#944 = CARTESIAN_POINT('',(0.,80.));
#945 = VECTOR('',#946,1.);
#946 = DIRECTION('',(1.,0.));
#947 = ( GEOMETRIC_REPRESENTATION_CONTEXT(2) 
PARAMETRIC_REPRESENTATION_CONTEXT() REPRESENTATION_CONTEXT('2D SPACE',''
  ) );
#948 = PCURVE('',#729,#949);
#949 = DEFINITIONAL_REPRESENTATION('',(#950),#954);
#950 = CIRCLE('',#951,33.);
#951 = AXIS2_PLACEMENT_2D('',#952,#953);
#952 = CARTESIAN_POINT('',(0.,0.));
#953 = DIRECTION('',(1.,0.));
#954 = ( GEOMETRIC_REPRESENTATION_CONTEXT(2) 
PARAMETRIC_REPRESENTATION_CONTEXT() REPRESENTATION_CONTEXT('2D SPACE',''
  ) );
#955 = ORIENTED_EDGE('',*,*,#740,.F.);
#956 = ORIENTED_EDGE('',*,*,#957,.F.);
#957 = EDGE_CURVE('',#958,#682,#960,.T.);
#958 = VERTEX_POINT('',#959);
#959 = CARTESIAN_POINT('',(33.,-8.082668874373E-15,56.));
#960 = SEAM_CURVE('',#961,(#965,#972),.PCURVE_S1.);
#961 = LINE('',#962,#963);
#962 = CARTESIAN_POINT('',(33.,-8.082668874373E-15,56.));
#963 = VECTOR('',#964,1.);
#964 = DIRECTION('',(0.,0.,1.));
#965 = PCURVE('',#698,#966);
#966 = DEFINITIONAL_REPRESENTATION('',(#967),#971);
#967 = LINE('',#968,#969);
#968 = CARTESIAN_POINT('',(6.28318530718,-0.));
#969 = VECTOR('',#970,1.);
#970 = DIRECTION('',(0.,1.));
#971 = ( GEOMETRIC_REPRESENTATION_CONTEXT(2) 
PARAMETRIC_REPRESENTATION_CONTEXT() REPRESENTATION_CONTEXT('2D SPACE',''
  ) );
#972 = PCURVE('',#698,#973);
#973 = DEFINITIONAL_REPRESENTATION('',(#974),#978);
#974 = LINE('',#975,#976);
#975 = CARTESIAN_POINT('',(0.,-0.));
#976 = VECTOR('',#977,1.);
#977 = DIRECTION('',(0.,1.));
#978 = ( GEOMETRIC_REPRESENTATION_CONTEXT(2) 
PARAMETRIC_REPRESENTATION_CONTEXT() REPRESENTATION_CONTEXT('2D SPACE',''
  ) );
#979 = ORIENTED_EDGE('',*,*,#980,.T.);
#980 = EDGE_CURVE('',#958,#958,#981,.T.);
#981 = SURFACE_CURVE('',#982,(#987,#994),.PCURVE_S1.);
#982 = CIRCLE('',#983,33.);
#983 = AXIS2_PLACEMENT_3D('',#984,#985,#986);
#984 = CARTESIAN_POINT('',(0.,0.,56.));
#985 = DIRECTION('',(0.,0.,1.));
#986 = DIRECTION('',(1.,0.,-0.));
#987 = PCURVE('',#698,#988);
#988 = DEFINITIONAL_REPRESENTATION('',(#989),#993);
#989 = LINE('',#990,#991);
#990 = CARTESIAN_POINT('',(0.,0.));
#991 = VECTOR('',#992,1.);
#992 = DIRECTION('',(1.,0.));
#993 = ( GEOMETRIC_REPRESENTATION_CONTEXT(2) 
PARAMETRIC_REPRESENTATION_CONTEXT() REPRESENTATION_CONTEXT('2D SPACE',''
  ) );
#994 = PCURVE('',#995,#1000);
#995 = PLANE('',#996);
#996 = AXIS2_PLACEMENT_3D('',#997,#998,#999);
#997 = CARTESIAN_POINT('',(0.,0.,56.));
#998 = DIRECTION('',(0.,0.,1.));
#999 = DIRECTION('',(1.,0.,-0.));
#1000 = DEFINITIONAL_REPRESENTATION('',(#1001),#1005);
#1001 = CIRCLE('',#1002,33.);
#1002 = AXIS2_PLACEMENT_2D('',#1003,#1004);
#1003 = CARTESIAN_POINT('',(0.,0.));
#1004 = DIRECTION('',(1.,0.));
#1005 = ( GEOMETRIC_REPRESENTATION_CONTEXT(2) 
PARAMETRIC_REPRESENTATION_CONTEXT() REPRESENTATION_CONTEXT('2D SPACE',''
  ) );
#1006 = ORIENTED_EDGE('',*,*,#957,.T.);
#1007 = ORIENTED_EDGE('',*,*,#679,.F.);
#1008 = ADVANCED_FACE('',(#1009),#729,.F.);
#1009 = FACE_BOUND('',#1010,.F.);
#1010 = EDGE_LOOP('',(#1011,#1012));
#1011 = ORIENTED_EDGE('',*,*,#714,.F.);
#1012 = ORIENTED_EDGE('',*,*,#934,.T.);
#1013 = ADVANCED_FACE('',(#1014),#808,.F.);
#1014 = FACE_BOUND('',#1015,.T.);
#1015 = EDGE_LOOP('',(#1016));
#1016 = ORIENTED_EDGE('',*,*,#793,.F.);
#1017 = ADVANCED_FACE('',(#1018),#863,.F.);
#1018 = FACE_BOUND('',#1019,.T.);
#1019 = EDGE_LOOP('',(#1020));
#1020 = ORIENTED_EDGE('',*,*,#848,.F.);
#1021 = ADVANCED_FACE('',(#1022,#1025),#917,.F.);
#1022 = FACE_BOUND('',#1023,.F.);
#1023 = EDGE_LOOP('',(#1024));
#1024 = ORIENTED_EDGE('',*,*,#902,.T.);
#1025 = FACE_BOUND('',#1026,.F.);
#1026 = EDGE_LOOP('',(#1027));
#1027 = ORIENTED_EDGE('',*,*,#1028,.F.);
#1028 = EDGE_CURVE('',#1029,#1029,#1031,.T.);
#1029 = VERTEX_POINT('',#1030);
#1030 = CARTESIAN_POINT('',(14.,-3.429011037613E-15,52.005));
#1031 = SURFACE_CURVE('',#1032,(#1037,#1044),.PCURVE_S1.);
#1032 = CIRCLE('',#1033,14.);
#1033 = AXIS2_PLACEMENT_3D('',#1034,#1035,#1036);
#1034 = CARTESIAN_POINT('',(0.,0.,52.005));
#1035 = DIRECTION('',(0.,0.,1.));
#1036 = DIRECTION('',(1.,0.,-0.));
#1037 = PCURVE('',#917,#1038);
#1038 = DEFINITIONAL_REPRESENTATION('',(#1039),#1043);
#1039 = CIRCLE('',#1040,14.);
#1040 = AXIS2_PLACEMENT_2D('',#1041,#1042);
#1041 = CARTESIAN_POINT('',(0.,0.));
#1042 = DIRECTION('',(1.,0.));
#1043 = ( GEOMETRIC_REPRESENTATION_CONTEXT(2) 
PARAMETRIC_REPRESENTATION_CONTEXT() REPRESENTATION_CONTEXT('2D SPACE',''
  ) );
#1044 = PCURVE('',#1045,#1050);
#1045 = CYLINDRICAL_SURFACE('',#1046,14.);
#1046 = AXIS2_PLACEMENT_3D('',#1047,#1048,#1049);
#1047 = CARTESIAN_POINT('',(0.,0.,46.));
#1048 = DIRECTION('',(0.,0.,1.));
#1049 = DIRECTION('',(1.,0.,-0.));
#1050 = DEFINITIONAL_REPRESENTATION('',(#1051),#1055);
#1051 = LINE('',#1052,#1053);
#1052 = CARTESIAN_POINT('',(0.,6.005));
#1053 = VECTOR('',#1054,1.);
#1054 = DIRECTION('',(1.,0.));
#1055 = ( GEOMETRIC_REPRESENTATION_CONTEXT(2) 
PARAMETRIC_REPRESENTATION_CONTEXT() REPRESENTATION_CONTEXT('2D SPACE',''
  ) );
#1056 = ADVANCED_FACE('',(#1057,#1060),#995,.T.);
#1057 = FACE_BOUND('',#1058,.T.);
#1058 = EDGE_LOOP('',(#1059));
#1059 = ORIENTED_EDGE('',*,*,#980,.T.);
#1060 = FACE_BOUND('',#1061,.T.);
#1061 = EDGE_LOOP('',(#1062));
#1062 = ORIENTED_EDGE('',*,*,#1063,.F.);
#1063 = EDGE_CURVE('',#1064,#1064,#1066,.T.);
#1064 = VERTEX_POINT('',#1065);
#1065 = CARTESIAN_POINT('',(14.,-3.429011037613E-15,56.));
#1066 = SURFACE_CURVE('',#1067,(#1072,#1079),.PCURVE_S1.);
#1067 = CIRCLE('',#1068,14.);
#1068 = AXIS2_PLACEMENT_3D('',#1069,#1070,#1071);
#1069 = CARTESIAN_POINT('',(0.,0.,56.));
#1070 = DIRECTION('',(0.,0.,1.));
#1071 = DIRECTION('',(1.,0.,-0.));
#1072 = PCURVE('',#995,#1073);
#1073 = DEFINITIONAL_REPRESENTATION('',(#1074),#1078);
#1074 = CIRCLE('',#1075,14.);
#1075 = AXIS2_PLACEMENT_2D('',#1076,#1077);
#1076 = CARTESIAN_POINT('',(0.,0.));
#1077 = DIRECTION('',(1.,0.));
#1078 = ( GEOMETRIC_REPRESENTATION_CONTEXT(2) 
PARAMETRIC_REPRESENTATION_CONTEXT() REPRESENTATION_CONTEXT('2D SPACE',''
  ) );
#1079 = PCURVE('',#1045,#1080);
#1080 = DEFINITIONAL_REPRESENTATION('',(#1081),#1085);
#1081 = LINE('',#1082,#1083);
#1082 = CARTESIAN_POINT('',(0.,10.));
#1083 = VECTOR('',#1084,1.);
#1084 = DIRECTION('',(1.,0.));
#1085 = ( GEOMETRIC_REPRESENTATION_CONTEXT(2) 
PARAMETRIC_REPRESENTATION_CONTEXT() REPRESENTATION_CONTEXT('2D SPACE',''
  ) );
#1086 = ADVANCED_FACE('',(#1087),#1045,.F.);
#1087 = FACE_BOUND('',#1088,.F.);
#1088 = EDGE_LOOP('',(#1089,#1110,#1111,#1112));
#1089 = ORIENTED_EDGE('',*,*,#1090,.T.);
#1090 = EDGE_CURVE('',#1029,#1064,#1091,.T.);
#1091 = SEAM_CURVE('',#1092,(#1096,#1103),.PCURVE_S1.);
#1092 = LINE('',#1093,#1094);
#1093 = CARTESIAN_POINT('',(14.,-3.429011037613E-15,46.));
#1094 = VECTOR('',#1095,1.);
#1095 = DIRECTION('',(0.,0.,1.));
#1096 = PCURVE('',#1045,#1097);
#1097 = DEFINITIONAL_REPRESENTATION('',(#1098),#1102);
#1098 = LINE('',#1099,#1100);
#1099 = CARTESIAN_POINT('',(6.28318530718,-0.));
#1100 = VECTOR('',#1101,1.);
#1101 = DIRECTION('',(0.,1.));
#1102 = ( GEOMETRIC_REPRESENTATION_CONTEXT(2) 
PARAMETRIC_REPRESENTATION_CONTEXT() REPRESENTATION_CONTEXT('2D SPACE',''
  ) );
#1103 = PCURVE('',#1045,#1104);
#1104 = DEFINITIONAL_REPRESENTATION('',(#1105),#1109);
#1105 = LINE('',#1106,#1107);
#1106 = CARTESIAN_POINT('',(0.,-0.));
#1107 = VECTOR('',#1108,1.);
#1108 = DIRECTION('',(0.,1.));
#1109 = ( GEOMETRIC_REPRESENTATION_CONTEXT(2) 
PARAMETRIC_REPRESENTATION_CONTEXT() REPRESENTATION_CONTEXT('2D SPACE',''
  ) );
#1110 = ORIENTED_EDGE('',*,*,#1063,.F.);
#1111 = ORIENTED_EDGE('',*,*,#1090,.F.);
#1112 = ORIENTED_EDGE('',*,*,#1028,.T.);
#1113 = ( GEOMETRIC_REPRESENTATION_CONTEXT(3) 
GLOBAL_UNCERTAINTY_ASSIGNED_CONTEXT((#1117)) 
GLOBAL_UNIT_ASSIGNED_CONTEXT((#1114,#1115,#1116)) REPRESENTATION_CONTEXT
('Context #1','3D Context with UNIT and UNCERTAINTY') );
#1114 = ( LENGTH_UNIT() NAMED_UNIT(*) SI_UNIT(.MILLI.,.METRE.) );
#1115 = ( NAMED_UNIT(*) PLANE_ANGLE_UNIT() SI_UNIT($,.RADIAN.) );
#1116 = ( NAMED_UNIT(*) SI_UNIT($,.STERADIAN.) SOLID_ANGLE_UNIT() );
#1117 = UNCERTAINTY_MEASURE_WITH_UNIT(LENGTH_MEASURE(1.E-07),#1114,
  'distance_accuracy_value','confusion accuracy');
#1118 = PRODUCT_RELATED_PRODUCT_CATEGORY('part',$,(#7));
ENDSEC;
END-ISO-10303-21;
