ISO-10303-21;
HEADER;
FILE_DESCRIPTION(('Open CASCADE Model'),'2;1');
FILE_NAME('Open CASCADE Shape Model','2026-10-02T21:17:41',('Author'),(
    'Open CASCADE'),'Open CASCADE STEP processor 8.0','build123d',
  'Unknown');
FILE_SCHEMA(('AUTOMOTIVE_DESIGN { 1 0 10303 214 1 1 1 1 }'));
ENDSEC;
DATA;
#1 = APPLICATION_PROTOCOL_DEFINITION('international standard',
  'automotive_design',2000,#2);
#2 = APPLICATION_CONTEXT(
  'core data for automotive mechanical design processes');
#3 = SHAPE_DEFINITION_REPRESENTATION(#4,#10);
#4 = PRODUCT_DEFINITION_SHAPE('','',#5);
#5 = PRODUCT_DEFINITION('design','',#6,#9);
#6 = PRODUCT_DEFINITION_FORMATION('','',#7);
#7 = PRODUCT('COMPOUND','COMPOUND','',(#8));
#8 = PRODUCT_CONTEXT('',#2,'mechanical');
#9 = PRODUCT_DEFINITION_CONTEXT('part definition',#2,'design');
#10 = ADVANCED_BREP_SHAPE_REPRESENTATION('',(#11,#15),#1033);
#11 = AXIS2_PLACEMENT_3D('',#12,#13,#14);
#12 = CARTESIAN_POINT('',(0.,0.,0.));
#13 = DIRECTION('',(0.,0.,1.));
#14 = DIRECTION('',(1.,0.,-0.));
#15 = MANIFOLD_SOLID_BREP('',#16);
#16 = CLOSED_SHELL('',(#17,#276,#492,#668,#722,#769,#796,#823,#865,#942,
    #969,#999,#1006));
#17 = ADVANCED_FACE('',(#18,#105),#32,.T.);
#18 = FACE_BOUND('',#19,.T.);
#19 = EDGE_LOOP('',(#20,#50,#77,#78));
#20 = ORIENTED_EDGE('',*,*,#21,.T.);
#21 = EDGE_CURVE('',#22,#24,#26,.T.);
#22 = VERTEX_POINT('',#23);
#23 = CARTESIAN_POINT('',(40.,-9.797174393179E-15,0.));
#24 = VERTEX_POINT('',#25);
#25 = CARTESIAN_POINT('',(40.,-9.797174393179E-15,15.));
#26 = SEAM_CURVE('',#27,(#31,#43),.PCURVE_S1.);
#27 = LINE('',#28,#29);
#28 = CARTESIAN_POINT('',(40.,-9.797174393179E-15,0.));
#29 = VECTOR('',#30,1.);
#30 = DIRECTION('',(0.,0.,1.));
#31 = PCURVE('',#32,#37);
#32 = CYLINDRICAL_SURFACE('',#33,40.);
#33 = AXIS2_PLACEMENT_3D('',#34,#35,#36);
#34 = CARTESIAN_POINT('',(0.,0.,0.));
#35 = DIRECTION('',(0.,0.,1.));
#36 = DIRECTION('',(1.,0.,-0.));
#37 = DEFINITIONAL_REPRESENTATION('',(#38),#42);
#38 = LINE('',#39,#40);
#39 = CARTESIAN_POINT('',(6.28318530718,-0.));
#40 = VECTOR('',#41,1.);
#41 = DIRECTION('',(0.,1.));
#42 = ( GEOMETRIC_REPRESENTATION_CONTEXT(2) 
PARAMETRIC_REPRESENTATION_CONTEXT() REPRESENTATION_CONTEXT('2D SPACE',''
  ) );
#43 = PCURVE('',#32,#44);
#44 = DEFINITIONAL_REPRESENTATION('',(#45),#49);
#45 = LINE('',#46,#47);
#46 = CARTESIAN_POINT('',(0.,-0.));
#47 = VECTOR('',#48,1.);
#48 = DIRECTION('',(0.,1.));
#49 = ( GEOMETRIC_REPRESENTATION_CONTEXT(2) 
PARAMETRIC_REPRESENTATION_CONTEXT() REPRESENTATION_CONTEXT('2D SPACE',''
  ) );
#50 = ORIENTED_EDGE('',*,*,#51,.F.);
#51 = EDGE_CURVE('',#24,#24,#52,.T.);
#52 = SURFACE_CURVE('',#53,(#58,#65),.PCURVE_S1.);
#53 = CIRCLE('',#54,40.);
#54 = AXIS2_PLACEMENT_3D('',#55,#56,#57);
#55 = CARTESIAN_POINT('',(0.,0.,15.));
#56 = DIRECTION('',(0.,0.,1.));
#57 = DIRECTION('',(1.,0.,-0.));
#58 = PCURVE('',#32,#59);
#59 = DEFINITIONAL_REPRESENTATION('',(#60),#64);
#60 = LINE('',#61,#62);
#61 = CARTESIAN_POINT('',(0.,15.));
#62 = VECTOR('',#63,1.);
#63 = DIRECTION('',(1.,0.));
#64 = ( GEOMETRIC_REPRESENTATION_CONTEXT(2) 
PARAMETRIC_REPRESENTATION_CONTEXT() REPRESENTATION_CONTEXT('2D SPACE',''
  ) );
#65 = PCURVE('',#66,#71);
#66 = PLANE('',#67);
#67 = AXIS2_PLACEMENT_3D('',#68,#69,#70);
#68 = CARTESIAN_POINT('',(0.,0.,15.));
#69 = DIRECTION('',(0.,0.,1.));
#70 = DIRECTION('',(1.,0.,-0.));
#71 = DEFINITIONAL_REPRESENTATION('',(#72),#76);
#72 = CIRCLE('',#73,40.);
#73 = AXIS2_PLACEMENT_2D('',#74,#75);
#74 = CARTESIAN_POINT('',(0.,0.));
#75 = DIRECTION('',(1.,0.));
#76 = ( GEOMETRIC_REPRESENTATION_CONTEXT(2) 
PARAMETRIC_REPRESENTATION_CONTEXT() REPRESENTATION_CONTEXT('2D SPACE',''
  ) );
#77 = ORIENTED_EDGE('',*,*,#21,.F.);
#78 = ORIENTED_EDGE('',*,*,#79,.T.);
#79 = EDGE_CURVE('',#22,#22,#80,.T.);
#80 = SURFACE_CURVE('',#81,(#86,#93),.PCURVE_S1.);
#81 = CIRCLE('',#82,40.);
#82 = AXIS2_PLACEMENT_3D('',#83,#84,#85);
#83 = CARTESIAN_POINT('',(0.,0.,0.));
#84 = DIRECTION('',(0.,0.,1.));
#85 = DIRECTION('',(1.,0.,-0.));
#86 = PCURVE('',#32,#87);
#87 = DEFINITIONAL_REPRESENTATION('',(#88),#92);
#88 = LINE('',#89,#90);
#89 = CARTESIAN_POINT('',(0.,0.));
#90 = VECTOR('',#91,1.);
#91 = DIRECTION('',(1.,0.));
#92 = ( GEOMETRIC_REPRESENTATION_CONTEXT(2) 
PARAMETRIC_REPRESENTATION_CONTEXT() REPRESENTATION_CONTEXT('2D SPACE',''
  ) );
#93 = PCURVE('',#94,#99);
#94 = PLANE('',#95);
#95 = AXIS2_PLACEMENT_3D('',#96,#97,#98);
#96 = CARTESIAN_POINT('',(0.,0.,0.));
#97 = DIRECTION('',(0.,0.,1.));
#98 = DIRECTION('',(1.,0.,-0.));
#99 = DEFINITIONAL_REPRESENTATION('',(#100),#104);
#100 = CIRCLE('',#101,40.);
#101 = AXIS2_PLACEMENT_2D('',#102,#103);
#102 = CARTESIAN_POINT('',(0.,0.));
#103 = DIRECTION('',(1.,0.));
#104 = ( GEOMETRIC_REPRESENTATION_CONTEXT(2) 
PARAMETRIC_REPRESENTATION_CONTEXT() REPRESENTATION_CONTEXT('2D SPACE',''
  ) );
#105 = FACE_BOUND('',#106,.T.);
#106 = EDGE_LOOP('',(#107));
#107 = ORIENTED_EDGE('',*,*,#108,.T.);
#108 = EDGE_CURVE('',#109,#109,#111,.T.);
#109 = VERTEX_POINT('',#110);
#110 = CARTESIAN_POINT('',(2.7,39.908770965791,7.5));
#111 = SURFACE_CURVE('',#112,(#163,#217),.PCURVE_S1.);
#112 = B_SPLINE_CURVE_WITH_KNOTS('',7,(#113,#114,#115,#116,#117,#118,
    #119,#120,#121,#122,#123,#124,#125,#126,#127,#128,#129,#130,#131,
    #132,#133,#134,#135,#136,#137,#138,#139,#140,#141,#142,#143,#144,
    #145,#146,#147,#148,#149,#150,#151,#152,#153,#154,#155,#156,#157,
    #158,#159,#160,#161,#162),.UNSPECIFIED.,.T.,.F.,(8,6,6,6,6,6,6,6,8),
  (0.,0.133997049015,0.250981563894,0.358396252514,0.50115958038,
    0.634536546586,0.750979705624,0.857897323583,1.),.UNSPECIFIED.);
#113 = CARTESIAN_POINT('',(2.7,39.908770965791,7.5));
#114 = CARTESIAN_POINT('',(2.7,39.908770965791,7.779914584278));
#115 = CARTESIAN_POINT('',(2.666145163442,39.911061358557,8.059498676199
    ));
#116 = CARTESIAN_POINT('',(2.598571901375,39.91563314894,8.336523812496)
  );
#117 = CARTESIAN_POINT('',(2.496392881265,39.922363810299,8.608482976653
    ));
#118 = CARTESIAN_POINT('',(2.357961570302,39.931007048203,8.872074342477
    ));
#119 = CARTESIAN_POINT('',(2.181162845655,39.941079629875,9.122576621188
    ));
#120 = CARTESIAN_POINT('',(1.774237824185,39.961082845253,9.553891945676
    ));
#121 = CARTESIAN_POINT('',(1.548920813626,39.97110568331,9.744614209229)
  );
#122 = CARTESIAN_POINT('',(1.288623967908,39.981083419566,9.913680154247
    ));
#123 = CARTESIAN_POINT('',(0.996857422037,39.989955491476,
    10.051188934489));
#124 = CARTESIAN_POINT('',(0.679478545342,39.996545441256,
    10.148822123143));
#125 = CARTESIAN_POINT('',(0.344152976449,40.,10.2));
#126 = CARTESIAN_POINT('',(-0.315999812804,40.,10.2));
#127 = CARTESIAN_POINT('',(-0.625490519596,39.997087508572,
    10.156852646744));
#128 = CARTESIAN_POINT('',(-0.920940590128,39.991478723341,
    10.073755833354));
#129 = CARTESIAN_POINT('',(-1.195740774774,39.983797161954,
    9.955641688456));
#130 = CARTESIAN_POINT('',(-1.444613906345,39.974951425179,
    9.809050944126));
#131 = CARTESIAN_POINT('',(-1.664079956801,39.965817263836,
    9.642006467998));
#132 = CARTESIAN_POINT('',(-2.103747208823,39.945429416034,
    9.227201809291));
#133 = CARTESIAN_POINT('',(-2.30755340431,39.934136653272,8.964241391415
    ));
#134 = CARTESIAN_POINT('',(-2.466666292765,39.924317617008,
    8.684740123918));
#135 = CARTESIAN_POINT('',(-2.583840593984,39.916630042062,
    8.394824649094));
#136 = CARTESIAN_POINT('',(-2.661211024495,39.911395108112,
    8.098785848659));
#137 = CARTESIAN_POINT('',(-2.7,39.908770965791,7.799613484296));
#138 = CARTESIAN_POINT('',(-2.7,39.908770965791,7.220085415722));
#139 = CARTESIAN_POINT('',(-2.666145163441,39.911061358557,6.9405013238)
  );
#140 = CARTESIAN_POINT('',(-2.598571901375,39.91563314894,6.663476187505
    ));
#141 = CARTESIAN_POINT('',(-2.496392881265,39.9223638103,6.391517023346)
  );
#142 = CARTESIAN_POINT('',(-2.357961570302,39.931007048203,
    6.127925657523));
#143 = CARTESIAN_POINT('',(-2.181162845655,39.941079629875,
    5.877423378812));
#144 = CARTESIAN_POINT('',(-1.774237824168,39.961082845253,
    5.446108054307));
#145 = CARTESIAN_POINT('',(-1.548920813641,39.97110568331,5.255385790795
    ));
#146 = CARTESIAN_POINT('',(-1.288623967927,39.981083419566,
    5.086319845752));
#147 = CARTESIAN_POINT('',(-0.996857422021,39.989955491477,
    4.948811065496));
#148 = CARTESIAN_POINT('',(-0.679478545319,39.996545441256,
    4.851177876863));
#149 = CARTESIAN_POINT('',(-0.344152976472,40.,4.8));
#150 = CARTESIAN_POINT('',(0.315999812804,40.,4.8));
#151 = CARTESIAN_POINT('',(0.625490519597,39.997087508572,4.843147353256
    ));
#152 = CARTESIAN_POINT('',(0.920940590127,39.991478723341,4.926244166647
    ));
#153 = CARTESIAN_POINT('',(1.195740774774,39.983797161954,5.044358311543
    ));
#154 = CARTESIAN_POINT('',(1.444613906345,39.974951425179,5.190949055874
    ));
#155 = CARTESIAN_POINT('',(1.6640799568,39.965817263836,5.357993532002)
  );
#156 = CARTESIAN_POINT('',(2.103747205403,39.945429416193,5.772798187482
    ));
#157 = CARTESIAN_POINT('',(2.307553414596,39.93413665278,6.035758621983)
  );
#158 = CARTESIAN_POINT('',(2.466666278691,39.9243176177,6.31525985086));
#159 = CARTESIAN_POINT('',(2.583840603883,39.916630041566,6.605175377055
    ));
#160 = CARTESIAN_POINT('',(2.66121102146,39.911395108266,6.901214136303)
  );
#161 = CARTESIAN_POINT('',(2.7,39.908770965791,7.20038651973));
#162 = CARTESIAN_POINT('',(2.7,39.908770965791,7.5));
#163 = PCURVE('',#32,#164);
#164 = DEFINITIONAL_REPRESENTATION('',(#165),#216);
#165 = B_SPLINE_CURVE_WITH_KNOTS('',7,(#166,#167,#168,#169,#170,#171,
    #172,#173,#174,#175,#176,#177,#178,#179,#180,#181,#182,#183,#184,
    #185,#186,#187,#188,#189,#190,#191,#192,#193,#194,#195,#196,#197,
    #198,#199,#200,#201,#202,#203,#204,#205,#206,#207,#208,#209,#210,
    #211,#212,#213,#214,#215),.UNSPECIFIED.,.T.,.F.,(8,6,6,6,6,6,6,6,8),
  (0.,0.133997049015,0.250981563894,0.358396252514,0.50115958038,
    0.634536546586,0.750979705624,0.857897323583,1.),.UNSPECIFIED.);
#166 = CARTESIAN_POINT('',(1.503244963602,7.5));
#167 = CARTESIAN_POINT('',(1.503244963602,7.779914584278));
#168 = CARTESIAN_POINT('',(1.504093269111,8.059498676199));
#169 = CARTESIAN_POINT('',(1.505786463252,8.336523812496));
#170 = CARTESIAN_POINT('',(1.508346468787,8.608482976653));
#171 = CARTESIAN_POINT('',(1.511813949139,8.872074342477));
#172 = CARTESIAN_POINT('',(1.516240950282,9.122576621188));
#173 = CARTESIAN_POINT('',(1.52642635963,9.553891945676));
#174 = CARTESIAN_POINT('',(1.532064792963,9.744614209229));
#175 = CARTESIAN_POINT('',(1.538576792911,9.913680154247));
#176 = CARTESIAN_POINT('',(1.545873856116,10.051188934489));
#177 = CARTESIAN_POINT('',(1.553809362047,10.148822123143));
#178 = CARTESIAN_POINT('',(1.562192502384,10.2));
#179 = CARTESIAN_POINT('',(1.578696322115,10.2));
#180 = CARTESIAN_POINT('',(1.586433590573,10.156852646744));
#181 = CARTESIAN_POINT('',(1.593820643252,10.073755833354));
#182 = CARTESIAN_POINT('',(1.600692927391,9.955641688457));
#183 = CARTESIAN_POINT('',(1.606918496741,9.809050944126));
#184 = CARTESIAN_POINT('',(1.612409835533,9.642006467998));
#185 = CARTESIAN_POINT('',(1.62341332807,9.227201809291));
#186 = CARTESIAN_POINT('',(1.628516091235,8.964241391415));
#187 = CARTESIAN_POINT('',(1.63250141851,8.684740123918));
#188 = CARTESIAN_POINT('',(1.635437065242,8.394824649094));
#189 = CARTESIAN_POINT('',(1.637375749149,8.098785848659));
#190 = CARTESIAN_POINT('',(1.638347689988,7.799613484296));
#191 = CARTESIAN_POINT('',(1.638347689988,7.220085415722));
#192 = CARTESIAN_POINT('',(1.637499384479,6.9405013238));
#193 = CARTESIAN_POINT('',(1.635806190338,6.663476187505));
#194 = CARTESIAN_POINT('',(1.633246184802,6.391517023346));
#195 = CARTESIAN_POINT('',(1.629778704451,6.127925657523));
#196 = CARTESIAN_POINT('',(1.625351703308,5.877423378812));
#197 = CARTESIAN_POINT('',(1.61516629396,5.446108054307));
#198 = CARTESIAN_POINT('',(1.609527860628,5.255385790795));
#199 = CARTESIAN_POINT('',(1.603015860679,5.086319845752));
#200 = CARTESIAN_POINT('',(1.595718797473,4.948811065496));
#201 = CARTESIAN_POINT('',(1.587783291542,4.851177876863));
#202 = CARTESIAN_POINT('',(1.579400151207,4.8));
#203 = CARTESIAN_POINT('',(1.562896331475,4.8));
#204 = CARTESIAN_POINT('',(1.555159063017,4.843147353256));
#205 = CARTESIAN_POINT('',(1.547772010338,4.926244166647));
#206 = CARTESIAN_POINT('',(1.540899726198,5.044358311543));
#207 = CARTESIAN_POINT('',(1.534674156848,5.190949055874));
#208 = CARTESIAN_POINT('',(1.529182818057,5.357993532002));
#209 = CARTESIAN_POINT('',(1.518179325605,5.772798187482));
#210 = CARTESIAN_POINT('',(1.513076562097,6.035758621983));
#211 = CARTESIAN_POINT('',(1.509091235432,6.31525985086));
#212 = CARTESIAN_POINT('',(1.5061555881,6.605175377055));
#213 = CARTESIAN_POINT('',(1.504216904517,6.901214136303));
#214 = CARTESIAN_POINT('',(1.503244963602,7.20038651973));
#215 = CARTESIAN_POINT('',(1.503244963602,7.5));
#216 = ( GEOMETRIC_REPRESENTATION_CONTEXT(2) 
PARAMETRIC_REPRESENTATION_CONTEXT() REPRESENTATION_CONTEXT('2D SPACE',''
  ) );
#217 = PCURVE('',#218,#223);
#218 = CYLINDRICAL_SURFACE('',#219,2.7);
#219 = AXIS2_PLACEMENT_3D('',#220,#221,#222);
#220 = CARTESIAN_POINT('',(0.,41.,7.5));
#221 = DIRECTION('',(0.,-1.,2.22044604925E-16));
#222 = DIRECTION('',(1.,0.,0.));
#223 = DEFINITIONAL_REPRESENTATION('',(#224),#275);
#224 = B_SPLINE_CURVE_WITH_KNOTS('',7,(#225,#226,#227,#228,#229,#230,
    #231,#232,#233,#234,#235,#236,#237,#238,#239,#240,#241,#242,#243,
    #244,#245,#246,#247,#248,#249,#250,#251,#252,#253,#254,#255,#256,
    #257,#258,#259,#260,#261,#262,#263,#264,#265,#266,#267,#268,#269,
    #270,#271,#272,#273,#274),.UNSPECIFIED.,.F.,.F.,(8,6,6,6,6,6,6,6,8),
  (0.,0.133997049015,0.250981563894,0.358396252514,0.50115958038,
    0.634536546586,0.750979705624,0.857897323583,1.),.UNSPECIFIED.);
#225 = CARTESIAN_POINT('',(0.,1.091229034209));
#226 = CARTESIAN_POINT('',(0.103672068251,1.091229034209));
#227 = CARTESIAN_POINT('',(0.207221432834,1.088938641443));
#228 = CARTESIAN_POINT('',(0.311644665128,1.08436685106));
#229 = CARTESIAN_POINT('',(0.41780811545,1.077636189701));
#230 = CARTESIAN_POINT('',(0.526634798369,1.068992951797));
#231 = CARTESIAN_POINT('',(0.639055528466,1.058920370125));
#232 = CARTESIAN_POINT('',(0.858676377156,1.038917154747));
#233 = CARTESIAN_POINT('',(0.967323980913,1.02889431669));
#234 = CARTESIAN_POINT('',(1.080779302396,1.018916580434));
#235 = CARTESIAN_POINT('',(1.19820698589,1.010044508524));
#236 = CARTESIAN_POINT('',(1.319137726737,1.003454558744));
#237 = CARTESIAN_POINT('',(1.443332261443,1.));
#238 = CARTESIAN_POINT('',(1.6878332945,1.));
#239 = CARTESIAN_POINT('',(1.802459358585,1.002912491428));
#240 = CARTESIAN_POINT('',(1.914504353231,1.008521276659));
#241 = CARTESIAN_POINT('',(2.023650813028,1.016202838046));
#242 = CARTESIAN_POINT('',(2.129404512823,1.025048574821));
#243 = CARTESIAN_POINT('',(2.230984880853,1.034182736164));
#244 = CARTESIAN_POINT('',(2.454858435879,1.054570583966));
#245 = CARTESIAN_POINT('',(2.576598878996,1.065863346728));
#246 = CARTESIAN_POINT('',(2.693904654561,1.075682382992));
#247 = CARTESIAN_POINT('',(2.807942892824,1.083369957938));
#248 = CARTESIAN_POINT('',(2.919820472168,1.088604891888));
#249 = CARTESIAN_POINT('',(3.030624696443,1.091229034209));
#250 = CARTESIAN_POINT('',(3.245264721841,1.091229034209));
#251 = CARTESIAN_POINT('',(3.348814086424,1.088938641443));
#252 = CARTESIAN_POINT('',(3.453237318718,1.08436685106));
#253 = CARTESIAN_POINT('',(3.559400769041,1.0776361897));
#254 = CARTESIAN_POINT('',(3.668227451959,1.068992951797));
#255 = CARTESIAN_POINT('',(3.780648182056,1.058920370125));
#256 = CARTESIAN_POINT('',(4.000269030754,1.038917154747));
#257 = CARTESIAN_POINT('',(4.108916634492,1.02889431669));
#258 = CARTESIAN_POINT('',(4.222371955982,1.018916580434));
#259 = CARTESIAN_POINT('',(4.339799639485,1.010044508523));
#260 = CARTESIAN_POINT('',(4.460730380335,1.003454558744));
#261 = CARTESIAN_POINT('',(4.584924915025,1.));
#262 = CARTESIAN_POINT('',(4.82942594809,1.));
#263 = CARTESIAN_POINT('',(4.944052012175,1.002912491428));
#264 = CARTESIAN_POINT('',(5.05609700682,1.008521276659));
#265 = CARTESIAN_POINT('',(5.165243466618,1.016202838046));
#266 = CARTESIAN_POINT('',(5.270997166413,1.025048574821));
#267 = CARTESIAN_POINT('',(5.372577534442,1.034182736164));
#268 = CARTESIAN_POINT('',(5.596451087727,1.054570583807));
#269 = CARTESIAN_POINT('',(5.718191539112,1.06586334722));
#270 = CARTESIAN_POINT('',(5.835497296764,1.0756823823));
#271 = CARTESIAN_POINT('',(5.949535557482,1.083369958434));
#272 = CARTESIAN_POINT('',(6.061413119777,1.088604891734));
#273 = CARTESIAN_POINT('',(6.172217351524,1.091229034209));
#274 = CARTESIAN_POINT('',(6.28318530718,1.091229034209));
#275 = ( GEOMETRIC_REPRESENTATION_CONTEXT(2) 
PARAMETRIC_REPRESENTATION_CONTEXT() REPRESENTATION_CONTEXT('2D SPACE',''
  ) );
#276 = ADVANCED_FACE('',(#277,#280,#386),#94,.F.);
#277 = FACE_BOUND('',#278,.F.);
#278 = EDGE_LOOP('',(#279));
#279 = ORIENTED_EDGE('',*,*,#79,.T.);
#280 = FACE_BOUND('',#281,.F.);
#281 = EDGE_LOOP('',(#282,#310,#336,#362));
#282 = ORIENTED_EDGE('',*,*,#283,.T.);
#283 = EDGE_CURVE('',#284,#286,#288,.T.);
#284 = VERTEX_POINT('',#285);
#285 = CARTESIAN_POINT('',(16.3,-4.3,0.));
#286 = VERTEX_POINT('',#287);
#287 = CARTESIAN_POINT('',(-16.3,-4.3,0.));
#288 = SURFACE_CURVE('',#289,(#293,#299),.PCURVE_S1.);
#289 = LINE('',#290,#291);
#290 = CARTESIAN_POINT('',(-8.15,-4.3,0.));
#291 = VECTOR('',#292,1.);
#292 = DIRECTION('',(-1.,-0.,0.));
#293 = PCURVE('',#94,#294);
#294 = DEFINITIONAL_REPRESENTATION('',(#295),#298);
#295 = B_SPLINE_CURVE_WITH_KNOTS('',1,(#296,#297),.UNSPECIFIED.,.F.,.F.,
  (2,2),(-24.45,8.15),.PIECEWISE_BEZIER_KNOTS.);
#296 = CARTESIAN_POINT('',(16.3,-4.3));
#297 = CARTESIAN_POINT('',(-16.3,-4.3));
#298 = ( GEOMETRIC_REPRESENTATION_CONTEXT(2) 
PARAMETRIC_REPRESENTATION_CONTEXT() REPRESENTATION_CONTEXT('2D SPACE',''
  ) );
#299 = PCURVE('',#300,#305);
#300 = PLANE('',#301);
#301 = AXIS2_PLACEMENT_3D('',#302,#303,#304);
#302 = CARTESIAN_POINT('',(-16.3,-4.3,-1.));
#303 = DIRECTION('',(-0.,1.,0.));
#304 = DIRECTION('',(0.,0.,1.));
#305 = DEFINITIONAL_REPRESENTATION('',(#306),#309);
#306 = B_SPLINE_CURVE_WITH_KNOTS('',1,(#307,#308),.UNSPECIFIED.,.F.,.F.,
  (2,2),(-24.45,8.15),.PIECEWISE_BEZIER_KNOTS.);
#307 = CARTESIAN_POINT('',(1.,32.6));
#308 = CARTESIAN_POINT('',(1.,0.));
#309 = ( GEOMETRIC_REPRESENTATION_CONTEXT(2) 
PARAMETRIC_REPRESENTATION_CONTEXT() REPRESENTATION_CONTEXT('2D SPACE',''
  ) );
#310 = ORIENTED_EDGE('',*,*,#311,.T.);
#311 = EDGE_CURVE('',#286,#312,#314,.T.);
#312 = VERTEX_POINT('',#313);
#313 = CARTESIAN_POINT('',(-16.3,4.3,0.));
#314 = SURFACE_CURVE('',#315,(#319,#325),.PCURVE_S1.);
#315 = LINE('',#316,#317);
#316 = CARTESIAN_POINT('',(-16.3,-2.15,0.));
#317 = VECTOR('',#318,1.);
#318 = DIRECTION('',(-0.,1.,0.));
#319 = PCURVE('',#94,#320);
#320 = DEFINITIONAL_REPRESENTATION('',(#321),#324);
#321 = B_SPLINE_CURVE_WITH_KNOTS('',1,(#322,#323),.UNSPECIFIED.,.F.,.F.,
  (2,2),(-2.15,6.45),.PIECEWISE_BEZIER_KNOTS.);
#322 = CARTESIAN_POINT('',(-16.3,-4.3));
#323 = CARTESIAN_POINT('',(-16.3,4.3));
#324 = ( GEOMETRIC_REPRESENTATION_CONTEXT(2) 
PARAMETRIC_REPRESENTATION_CONTEXT() REPRESENTATION_CONTEXT('2D SPACE',''
  ) );
#325 = PCURVE('',#326,#331);
#326 = PLANE('',#327);
#327 = AXIS2_PLACEMENT_3D('',#328,#329,#330);
#328 = CARTESIAN_POINT('',(-16.3,-4.3,-1.));
#329 = DIRECTION('',(1.,0.,-0.));
#330 = DIRECTION('',(0.,0.,1.));
#331 = DEFINITIONAL_REPRESENTATION('',(#332),#335);
#332 = B_SPLINE_CURVE_WITH_KNOTS('',1,(#333,#334),.UNSPECIFIED.,.F.,.F.,
  (2,2),(-2.15,6.45),.PIECEWISE_BEZIER_KNOTS.);
#333 = CARTESIAN_POINT('',(1.,0.));
#334 = CARTESIAN_POINT('',(1.,-8.6));
#335 = ( GEOMETRIC_REPRESENTATION_CONTEXT(2) 
PARAMETRIC_REPRESENTATION_CONTEXT() REPRESENTATION_CONTEXT('2D SPACE',''
  ) );
#336 = ORIENTED_EDGE('',*,*,#337,.F.);
#337 = EDGE_CURVE('',#338,#312,#340,.T.);
#338 = VERTEX_POINT('',#339);
#339 = CARTESIAN_POINT('',(16.3,4.3,0.));
#340 = SURFACE_CURVE('',#341,(#345,#351),.PCURVE_S1.);
#341 = LINE('',#342,#343);
#342 = CARTESIAN_POINT('',(-8.15,4.3,0.));
#343 = VECTOR('',#344,1.);
#344 = DIRECTION('',(-1.,-0.,0.));
#345 = PCURVE('',#94,#346);
#346 = DEFINITIONAL_REPRESENTATION('',(#347),#350);
#347 = B_SPLINE_CURVE_WITH_KNOTS('',1,(#348,#349),.UNSPECIFIED.,.F.,.F.,
  (2,2),(-24.45,8.15),.PIECEWISE_BEZIER_KNOTS.);
#348 = CARTESIAN_POINT('',(16.3,4.3));
#349 = CARTESIAN_POINT('',(-16.3,4.3));
#350 = ( GEOMETRIC_REPRESENTATION_CONTEXT(2) 
PARAMETRIC_REPRESENTATION_CONTEXT() REPRESENTATION_CONTEXT('2D SPACE',''
  ) );
#351 = PCURVE('',#352,#357);
#352 = PLANE('',#353);
#353 = AXIS2_PLACEMENT_3D('',#354,#355,#356);
#354 = CARTESIAN_POINT('',(-16.3,4.3,-1.));
#355 = DIRECTION('',(-0.,1.,0.));
#356 = DIRECTION('',(0.,0.,1.));
#357 = DEFINITIONAL_REPRESENTATION('',(#358),#361);
#358 = B_SPLINE_CURVE_WITH_KNOTS('',1,(#359,#360),.UNSPECIFIED.,.F.,.F.,
  (2,2),(-24.45,8.15),.PIECEWISE_BEZIER_KNOTS.);
#359 = CARTESIAN_POINT('',(1.,32.6));
#360 = CARTESIAN_POINT('',(1.,0.));
#361 = ( GEOMETRIC_REPRESENTATION_CONTEXT(2) 
PARAMETRIC_REPRESENTATION_CONTEXT() REPRESENTATION_CONTEXT('2D SPACE',''
  ) );
#362 = ORIENTED_EDGE('',*,*,#363,.F.);
#363 = EDGE_CURVE('',#284,#338,#364,.T.);
#364 = SURFACE_CURVE('',#365,(#369,#375),.PCURVE_S1.);
#365 = LINE('',#366,#367);
#366 = CARTESIAN_POINT('',(16.3,-2.15,0.));
#367 = VECTOR('',#368,1.);
#368 = DIRECTION('',(-0.,1.,0.));
#369 = PCURVE('',#94,#370);
#370 = DEFINITIONAL_REPRESENTATION('',(#371),#374);
#371 = B_SPLINE_CURVE_WITH_KNOTS('',1,(#372,#373),.UNSPECIFIED.,.F.,.F.,
  (2,2),(-2.15,6.45),.PIECEWISE_BEZIER_KNOTS.);
#372 = CARTESIAN_POINT('',(16.3,-4.3));
#373 = CARTESIAN_POINT('',(16.3,4.3));
#374 = ( GEOMETRIC_REPRESENTATION_CONTEXT(2) 
PARAMETRIC_REPRESENTATION_CONTEXT() REPRESENTATION_CONTEXT('2D SPACE',''
  ) );
#375 = PCURVE('',#376,#381);
#376 = PLANE('',#377);
#377 = AXIS2_PLACEMENT_3D('',#378,#379,#380);
#378 = CARTESIAN_POINT('',(16.3,-4.3,-1.));
#379 = DIRECTION('',(1.,0.,-0.));
#380 = DIRECTION('',(0.,0.,1.));
#381 = DEFINITIONAL_REPRESENTATION('',(#382),#385);
#382 = B_SPLINE_CURVE_WITH_KNOTS('',1,(#383,#384),.UNSPECIFIED.,.F.,.F.,
  (2,2),(-2.15,6.45),.PIECEWISE_BEZIER_KNOTS.);
#383 = CARTESIAN_POINT('',(1.,0.));
#384 = CARTESIAN_POINT('',(1.,-8.6));
#385 = ( GEOMETRIC_REPRESENTATION_CONTEXT(2) 
PARAMETRIC_REPRESENTATION_CONTEXT() REPRESENTATION_CONTEXT('2D SPACE',''
  ) );
#386 = FACE_BOUND('',#387,.F.);
#387 = EDGE_LOOP('',(#388,#416,#442,#468));
#388 = ORIENTED_EDGE('',*,*,#389,.T.);
#389 = EDGE_CURVE('',#390,#392,#394,.T.);
#390 = VERTEX_POINT('',#391);
#391 = CARTESIAN_POINT('',(4.5,17.75,0.));
#392 = VERTEX_POINT('',#393);
#393 = CARTESIAN_POINT('',(-4.5,17.75,0.));
#394 = SURFACE_CURVE('',#395,(#399,#405),.PCURVE_S1.);
#395 = LINE('',#396,#397);
#396 = CARTESIAN_POINT('',(-2.25,17.75,0.));
#397 = VECTOR('',#398,1.);
#398 = DIRECTION('',(-1.,-0.,0.));
#399 = PCURVE('',#94,#400);
#400 = DEFINITIONAL_REPRESENTATION('',(#401),#404);
#401 = B_SPLINE_CURVE_WITH_KNOTS('',1,(#402,#403),.UNSPECIFIED.,.F.,.F.,
  (2,2),(-6.75,2.25),.PIECEWISE_BEZIER_KNOTS.);
#402 = CARTESIAN_POINT('',(4.5,17.75));
#403 = CARTESIAN_POINT('',(-4.5,17.75));
#404 = ( GEOMETRIC_REPRESENTATION_CONTEXT(2) 
PARAMETRIC_REPRESENTATION_CONTEXT() REPRESENTATION_CONTEXT('2D SPACE',''
  ) );
#405 = PCURVE('',#406,#411);
#406 = PLANE('',#407);
#407 = AXIS2_PLACEMENT_3D('',#408,#409,#410);
#408 = CARTESIAN_POINT('',(-4.5,17.75,-1.));
#409 = DIRECTION('',(-0.,1.,0.));
#410 = DIRECTION('',(0.,0.,1.));
#411 = DEFINITIONAL_REPRESENTATION('',(#412),#415);
#412 = B_SPLINE_CURVE_WITH_KNOTS('',1,(#413,#414),.UNSPECIFIED.,.F.,.F.,
  (2,2),(-6.75,2.25),.PIECEWISE_BEZIER_KNOTS.);
#413 = CARTESIAN_POINT('',(1.,9.));
#414 = CARTESIAN_POINT('',(1.,0.));
#415 = ( GEOMETRIC_REPRESENTATION_CONTEXT(2) 
PARAMETRIC_REPRESENTATION_CONTEXT() REPRESENTATION_CONTEXT('2D SPACE',''
  ) );
#416 = ORIENTED_EDGE('',*,*,#417,.T.);
#417 = EDGE_CURVE('',#392,#418,#420,.T.);
#418 = VERTEX_POINT('',#419);
#419 = CARTESIAN_POINT('',(-4.5,22.25,0.));
#420 = SURFACE_CURVE('',#421,(#425,#431),.PCURVE_S1.);
#421 = LINE('',#422,#423);
#422 = CARTESIAN_POINT('',(-4.5,8.875,0.));
#423 = VECTOR('',#424,1.);
#424 = DIRECTION('',(-0.,1.,0.));
#425 = PCURVE('',#94,#426);
#426 = DEFINITIONAL_REPRESENTATION('',(#427),#430);
#427 = B_SPLINE_CURVE_WITH_KNOTS('',1,(#428,#429),.UNSPECIFIED.,.F.,.F.,
  (2,2),(8.875,13.375),.PIECEWISE_BEZIER_KNOTS.);
#428 = CARTESIAN_POINT('',(-4.5,17.75));
#429 = CARTESIAN_POINT('',(-4.5,22.25));
#430 = ( GEOMETRIC_REPRESENTATION_CONTEXT(2) 
PARAMETRIC_REPRESENTATION_CONTEXT() REPRESENTATION_CONTEXT('2D SPACE',''
  ) );
#431 = PCURVE('',#432,#437);
#432 = PLANE('',#433);
#433 = AXIS2_PLACEMENT_3D('',#434,#435,#436);
#434 = CARTESIAN_POINT('',(-4.5,17.75,-1.));
#435 = DIRECTION('',(1.,0.,-0.));
#436 = DIRECTION('',(0.,0.,1.));
#437 = DEFINITIONAL_REPRESENTATION('',(#438),#441);
#438 = B_SPLINE_CURVE_WITH_KNOTS('',1,(#439,#440),.UNSPECIFIED.,.F.,.F.,
  (2,2),(8.875,13.375),.PIECEWISE_BEZIER_KNOTS.);
#439 = CARTESIAN_POINT('',(1.,0.));
#440 = CARTESIAN_POINT('',(1.,-4.5));
#441 = ( GEOMETRIC_REPRESENTATION_CONTEXT(2) 
PARAMETRIC_REPRESENTATION_CONTEXT() REPRESENTATION_CONTEXT('2D SPACE',''
  ) );
#442 = ORIENTED_EDGE('',*,*,#443,.F.);
#443 = EDGE_CURVE('',#444,#418,#446,.T.);
#444 = VERTEX_POINT('',#445);
#445 = CARTESIAN_POINT('',(4.5,22.25,0.));
#446 = SURFACE_CURVE('',#447,(#451,#457),.PCURVE_S1.);
#447 = LINE('',#448,#449);
#448 = CARTESIAN_POINT('',(-2.25,22.25,0.));
#449 = VECTOR('',#450,1.);
#450 = DIRECTION('',(-1.,-0.,0.));
#451 = PCURVE('',#94,#452);
#452 = DEFINITIONAL_REPRESENTATION('',(#453),#456);
#453 = B_SPLINE_CURVE_WITH_KNOTS('',1,(#454,#455),.UNSPECIFIED.,.F.,.F.,
  (2,2),(-6.75,2.25),.PIECEWISE_BEZIER_KNOTS.);
#454 = CARTESIAN_POINT('',(4.5,22.25));
#455 = CARTESIAN_POINT('',(-4.5,22.25));
#456 = ( GEOMETRIC_REPRESENTATION_CONTEXT(2) 
PARAMETRIC_REPRESENTATION_CONTEXT() REPRESENTATION_CONTEXT('2D SPACE',''
  ) );
#457 = PCURVE('',#458,#463);
#458 = PLANE('',#459);
#459 = AXIS2_PLACEMENT_3D('',#460,#461,#462);
#460 = CARTESIAN_POINT('',(-4.5,22.25,-1.));
#461 = DIRECTION('',(-0.,1.,0.));
#462 = DIRECTION('',(0.,0.,1.));
#463 = DEFINITIONAL_REPRESENTATION('',(#464),#467);
#464 = B_SPLINE_CURVE_WITH_KNOTS('',1,(#465,#466),.UNSPECIFIED.,.F.,.F.,
  (2,2),(-6.75,2.25),.PIECEWISE_BEZIER_KNOTS.);
#465 = CARTESIAN_POINT('',(1.,9.));
#466 = CARTESIAN_POINT('',(1.,0.));
#467 = ( GEOMETRIC_REPRESENTATION_CONTEXT(2) 
PARAMETRIC_REPRESENTATION_CONTEXT() REPRESENTATION_CONTEXT('2D SPACE',''
  ) );
#468 = ORIENTED_EDGE('',*,*,#469,.F.);
#469 = EDGE_CURVE('',#390,#444,#470,.T.);
#470 = SURFACE_CURVE('',#471,(#475,#481),.PCURVE_S1.);
#471 = LINE('',#472,#473);
#472 = CARTESIAN_POINT('',(4.5,8.875,0.));
#473 = VECTOR('',#474,1.);
#474 = DIRECTION('',(-0.,1.,0.));
#475 = PCURVE('',#94,#476);
#476 = DEFINITIONAL_REPRESENTATION('',(#477),#480);
#477 = B_SPLINE_CURVE_WITH_KNOTS('',1,(#478,#479),.UNSPECIFIED.,.F.,.F.,
  (2,2),(8.875,13.375),.PIECEWISE_BEZIER_KNOTS.);
#478 = CARTESIAN_POINT('',(4.5,17.75));
#479 = CARTESIAN_POINT('',(4.5,22.25));
#480 = ( GEOMETRIC_REPRESENTATION_CONTEXT(2) 
PARAMETRIC_REPRESENTATION_CONTEXT() REPRESENTATION_CONTEXT('2D SPACE',''
  ) );
#481 = PCURVE('',#482,#487);
#482 = PLANE('',#483);
#483 = AXIS2_PLACEMENT_3D('',#484,#485,#486);
#484 = CARTESIAN_POINT('',(4.5,17.75,-1.));
#485 = DIRECTION('',(1.,0.,-0.));
#486 = DIRECTION('',(0.,0.,1.));
#487 = DEFINITIONAL_REPRESENTATION('',(#488),#491);
#488 = B_SPLINE_CURVE_WITH_KNOTS('',1,(#489,#490),.UNSPECIFIED.,.F.,.F.,
  (2,2),(8.875,13.375),.PIECEWISE_BEZIER_KNOTS.);
#489 = CARTESIAN_POINT('',(1.,0.));
#490 = CARTESIAN_POINT('',(1.,-4.5));
#491 = ( GEOMETRIC_REPRESENTATION_CONTEXT(2) 
PARAMETRIC_REPRESENTATION_CONTEXT() REPRESENTATION_CONTEXT('2D SPACE',''
  ) );
#492 = ADVANCED_FACE('',(#493,#496,#582),#66,.T.);
#493 = FACE_BOUND('',#494,.T.);
#494 = EDGE_LOOP('',(#495));
#495 = ORIENTED_EDGE('',*,*,#51,.T.);
#496 = FACE_BOUND('',#497,.T.);
#497 = EDGE_LOOP('',(#498,#521,#542,#563));
#498 = ORIENTED_EDGE('',*,*,#499,.T.);
#499 = EDGE_CURVE('',#500,#502,#504,.T.);
#500 = VERTEX_POINT('',#501);
#501 = CARTESIAN_POINT('',(16.3,-4.3,15.));
#502 = VERTEX_POINT('',#503);
#503 = CARTESIAN_POINT('',(-16.3,-4.3,15.));
#504 = SURFACE_CURVE('',#505,(#509,#515),.PCURVE_S1.);
#505 = LINE('',#506,#507);
#506 = CARTESIAN_POINT('',(-8.15,-4.3,15.));
#507 = VECTOR('',#508,1.);
#508 = DIRECTION('',(-1.,-0.,0.));
#509 = PCURVE('',#66,#510);
#510 = DEFINITIONAL_REPRESENTATION('',(#511),#514);
#511 = B_SPLINE_CURVE_WITH_KNOTS('',1,(#512,#513),.UNSPECIFIED.,.F.,.F.,
  (2,2),(-24.45,8.15),.PIECEWISE_BEZIER_KNOTS.);
#512 = CARTESIAN_POINT('',(16.3,-4.3));
#513 = CARTESIAN_POINT('',(-16.3,-4.3));
#514 = ( GEOMETRIC_REPRESENTATION_CONTEXT(2) 
PARAMETRIC_REPRESENTATION_CONTEXT() REPRESENTATION_CONTEXT('2D SPACE',''
  ) );
#515 = PCURVE('',#300,#516);
#516 = DEFINITIONAL_REPRESENTATION('',(#517),#520);
#517 = B_SPLINE_CURVE_WITH_KNOTS('',1,(#518,#519),.UNSPECIFIED.,.F.,.F.,
  (2,2),(-24.45,8.15),.PIECEWISE_BEZIER_KNOTS.);
#518 = CARTESIAN_POINT('',(16.,32.6));
#519 = CARTESIAN_POINT('',(16.,0.));
#520 = ( GEOMETRIC_REPRESENTATION_CONTEXT(2) 
PARAMETRIC_REPRESENTATION_CONTEXT() REPRESENTATION_CONTEXT('2D SPACE',''
  ) );
#521 = ORIENTED_EDGE('',*,*,#522,.T.);
#522 = EDGE_CURVE('',#502,#523,#525,.T.);
#523 = VERTEX_POINT('',#524);
#524 = CARTESIAN_POINT('',(-16.3,4.3,15.));
#525 = SURFACE_CURVE('',#526,(#530,#536),.PCURVE_S1.);
#526 = LINE('',#527,#528);
#527 = CARTESIAN_POINT('',(-16.3,-2.15,15.));
#528 = VECTOR('',#529,1.);
#529 = DIRECTION('',(-0.,1.,0.));
#530 = PCURVE('',#66,#531);
#531 = DEFINITIONAL_REPRESENTATION('',(#532),#535);
#532 = B_SPLINE_CURVE_WITH_KNOTS('',1,(#533,#534),.UNSPECIFIED.,.F.,.F.,
  (2,2),(-2.15,6.45),.PIECEWISE_BEZIER_KNOTS.);
#533 = CARTESIAN_POINT('',(-16.3,-4.3));
#534 = CARTESIAN_POINT('',(-16.3,4.3));
#535 = ( GEOMETRIC_REPRESENTATION_CONTEXT(2) 
PARAMETRIC_REPRESENTATION_CONTEXT() REPRESENTATION_CONTEXT('2D SPACE',''
  ) );
#536 = PCURVE('',#326,#537);
#537 = DEFINITIONAL_REPRESENTATION('',(#538),#541);
#538 = B_SPLINE_CURVE_WITH_KNOTS('',1,(#539,#540),.UNSPECIFIED.,.F.,.F.,
  (2,2),(-2.15,6.45),.PIECEWISE_BEZIER_KNOTS.);
#539 = CARTESIAN_POINT('',(16.,0.));
#540 = CARTESIAN_POINT('',(16.,-8.6));
#541 = ( GEOMETRIC_REPRESENTATION_CONTEXT(2) 
PARAMETRIC_REPRESENTATION_CONTEXT() REPRESENTATION_CONTEXT('2D SPACE',''
  ) );
#542 = ORIENTED_EDGE('',*,*,#543,.F.);
#543 = EDGE_CURVE('',#544,#523,#546,.T.);
#544 = VERTEX_POINT('',#545);
#545 = CARTESIAN_POINT('',(16.3,4.3,15.));
#546 = SURFACE_CURVE('',#547,(#551,#557),.PCURVE_S1.);
#547 = LINE('',#548,#549);
#548 = CARTESIAN_POINT('',(-8.15,4.3,15.));
#549 = VECTOR('',#550,1.);
#550 = DIRECTION('',(-1.,-0.,0.));
#551 = PCURVE('',#66,#552);
#552 = DEFINITIONAL_REPRESENTATION('',(#553),#556);
#553 = B_SPLINE_CURVE_WITH_KNOTS('',1,(#554,#555),.UNSPECIFIED.,.F.,.F.,
  (2,2),(-24.45,8.15),.PIECEWISE_BEZIER_KNOTS.);
#554 = CARTESIAN_POINT('',(16.3,4.3));
#555 = CARTESIAN_POINT('',(-16.3,4.3));
#556 = ( GEOMETRIC_REPRESENTATION_CONTEXT(2) 
PARAMETRIC_REPRESENTATION_CONTEXT() REPRESENTATION_CONTEXT('2D SPACE',''
  ) );
#557 = PCURVE('',#352,#558);
#558 = DEFINITIONAL_REPRESENTATION('',(#559),#562);
#559 = B_SPLINE_CURVE_WITH_KNOTS('',1,(#560,#561),.UNSPECIFIED.,.F.,.F.,
  (2,2),(-24.45,8.15),.PIECEWISE_BEZIER_KNOTS.);
#560 = CARTESIAN_POINT('',(16.,32.6));
#561 = CARTESIAN_POINT('',(16.,0.));
#562 = ( GEOMETRIC_REPRESENTATION_CONTEXT(2) 
PARAMETRIC_REPRESENTATION_CONTEXT() REPRESENTATION_CONTEXT('2D SPACE',''
  ) );
#563 = ORIENTED_EDGE('',*,*,#564,.F.);
#564 = EDGE_CURVE('',#500,#544,#565,.T.);
#565 = SURFACE_CURVE('',#566,(#570,#576),.PCURVE_S1.);
#566 = LINE('',#567,#568);
#567 = CARTESIAN_POINT('',(16.3,-2.15,15.));
#568 = VECTOR('',#569,1.);
#569 = DIRECTION('',(-0.,1.,0.));
#570 = PCURVE('',#66,#571);
#571 = DEFINITIONAL_REPRESENTATION('',(#572),#575);
#572 = B_SPLINE_CURVE_WITH_KNOTS('',1,(#573,#574),.UNSPECIFIED.,.F.,.F.,
  (2,2),(-2.15,6.45),.PIECEWISE_BEZIER_KNOTS.);
#573 = CARTESIAN_POINT('',(16.3,-4.3));
#574 = CARTESIAN_POINT('',(16.3,4.3));
#575 = ( GEOMETRIC_REPRESENTATION_CONTEXT(2) 
PARAMETRIC_REPRESENTATION_CONTEXT() REPRESENTATION_CONTEXT('2D SPACE',''
  ) );
#576 = PCURVE('',#376,#577);
#577 = DEFINITIONAL_REPRESENTATION('',(#578),#581);
#578 = B_SPLINE_CURVE_WITH_KNOTS('',1,(#579,#580),.UNSPECIFIED.,.F.,.F.,
  (2,2),(-2.15,6.45),.PIECEWISE_BEZIER_KNOTS.);
#579 = CARTESIAN_POINT('',(16.,0.));
#580 = CARTESIAN_POINT('',(16.,-8.6));
#581 = ( GEOMETRIC_REPRESENTATION_CONTEXT(2) 
PARAMETRIC_REPRESENTATION_CONTEXT() REPRESENTATION_CONTEXT('2D SPACE',''
  ) );
#582 = FACE_BOUND('',#583,.T.);
#583 = EDGE_LOOP('',(#584,#607,#628,#649));
#584 = ORIENTED_EDGE('',*,*,#585,.T.);
#585 = EDGE_CURVE('',#586,#588,#590,.T.);
#586 = VERTEX_POINT('',#587);
#587 = CARTESIAN_POINT('',(4.5,17.75,15.));
#588 = VERTEX_POINT('',#589);
#589 = CARTESIAN_POINT('',(-4.5,17.75,15.));
#590 = SURFACE_CURVE('',#591,(#595,#601),.PCURVE_S1.);
#591 = LINE('',#592,#593);
#592 = CARTESIAN_POINT('',(-2.25,17.75,15.));
#593 = VECTOR('',#594,1.);
#594 = DIRECTION('',(-1.,-0.,0.));
#595 = PCURVE('',#66,#596);
#596 = DEFINITIONAL_REPRESENTATION('',(#597),#600);
#597 = B_SPLINE_CURVE_WITH_KNOTS('',1,(#598,#599),.UNSPECIFIED.,.F.,.F.,
  (2,2),(-6.75,2.25),.PIECEWISE_BEZIER_KNOTS.);
#598 = CARTESIAN_POINT('',(4.5,17.75));
#599 = CARTESIAN_POINT('',(-4.5,17.75));
#600 = ( GEOMETRIC_REPRESENTATION_CONTEXT(2) 
PARAMETRIC_REPRESENTATION_CONTEXT() REPRESENTATION_CONTEXT('2D SPACE',''
  ) );
#601 = PCURVE('',#406,#602);
#602 = DEFINITIONAL_REPRESENTATION('',(#603),#606);
#603 = B_SPLINE_CURVE_WITH_KNOTS('',1,(#604,#605),.UNSPECIFIED.,.F.,.F.,
  (2,2),(-6.75,2.25),.PIECEWISE_BEZIER_KNOTS.);
#604 = CARTESIAN_POINT('',(16.,9.));
#605 = CARTESIAN_POINT('',(16.,0.));
#606 = ( GEOMETRIC_REPRESENTATION_CONTEXT(2) 
PARAMETRIC_REPRESENTATION_CONTEXT() REPRESENTATION_CONTEXT('2D SPACE',''
  ) );
#607 = ORIENTED_EDGE('',*,*,#608,.T.);
#608 = EDGE_CURVE('',#588,#609,#611,.T.);
#609 = VERTEX_POINT('',#610);
#610 = CARTESIAN_POINT('',(-4.5,22.25,15.));
#611 = SURFACE_CURVE('',#612,(#616,#622),.PCURVE_S1.);
#612 = LINE('',#613,#614);
#613 = CARTESIAN_POINT('',(-4.5,8.875,15.));
#614 = VECTOR('',#615,1.);
#615 = DIRECTION('',(-0.,1.,0.));
#616 = PCURVE('',#66,#617);
#617 = DEFINITIONAL_REPRESENTATION('',(#618),#621);
#618 = B_SPLINE_CURVE_WITH_KNOTS('',1,(#619,#620),.UNSPECIFIED.,.F.,.F.,
  (2,2),(8.875,13.375),.PIECEWISE_BEZIER_KNOTS.);
#619 = CARTESIAN_POINT('',(-4.5,17.75));
#620 = CARTESIAN_POINT('',(-4.5,22.25));
#621 = ( GEOMETRIC_REPRESENTATION_CONTEXT(2) 
PARAMETRIC_REPRESENTATION_CONTEXT() REPRESENTATION_CONTEXT('2D SPACE',''
  ) );
#622 = PCURVE('',#432,#623);
#623 = DEFINITIONAL_REPRESENTATION('',(#624),#627);
#624 = B_SPLINE_CURVE_WITH_KNOTS('',1,(#625,#626),.UNSPECIFIED.,.F.,.F.,
  (2,2),(8.875,13.375),.PIECEWISE_BEZIER_KNOTS.);
#625 = CARTESIAN_POINT('',(16.,0.));
#626 = CARTESIAN_POINT('',(16.,-4.5));
#627 = ( GEOMETRIC_REPRESENTATION_CONTEXT(2) 
PARAMETRIC_REPRESENTATION_CONTEXT() REPRESENTATION_CONTEXT('2D SPACE',''
  ) );
#628 = ORIENTED_EDGE('',*,*,#629,.F.);
#629 = EDGE_CURVE('',#630,#609,#632,.T.);
#630 = VERTEX_POINT('',#631);
#631 = CARTESIAN_POINT('',(4.5,22.25,15.));
#632 = SURFACE_CURVE('',#633,(#637,#643),.PCURVE_S1.);
#633 = LINE('',#634,#635);
#634 = CARTESIAN_POINT('',(-2.25,22.25,15.));
#635 = VECTOR('',#636,1.);
#636 = DIRECTION('',(-1.,-0.,0.));
#637 = PCURVE('',#66,#638);
#638 = DEFINITIONAL_REPRESENTATION('',(#639),#642);
#639 = B_SPLINE_CURVE_WITH_KNOTS('',1,(#640,#641),.UNSPECIFIED.,.F.,.F.,
  (2,2),(-6.75,2.25),.PIECEWISE_BEZIER_KNOTS.);
#640 = CARTESIAN_POINT('',(4.5,22.25));
#641 = CARTESIAN_POINT('',(-4.5,22.25));
#642 = ( GEOMETRIC_REPRESENTATION_CONTEXT(2) 
PARAMETRIC_REPRESENTATION_CONTEXT() REPRESENTATION_CONTEXT('2D SPACE',''
  ) );
#643 = PCURVE('',#458,#644);
#644 = DEFINITIONAL_REPRESENTATION('',(#645),#648);
#645 = B_SPLINE_CURVE_WITH_KNOTS('',1,(#646,#647),.UNSPECIFIED.,.F.,.F.,
  (2,2),(-6.75,2.25),.PIECEWISE_BEZIER_KNOTS.);
#646 = CARTESIAN_POINT('',(16.,9.));
#647 = CARTESIAN_POINT('',(16.,0.));
#648 = ( GEOMETRIC_REPRESENTATION_CONTEXT(2) 
PARAMETRIC_REPRESENTATION_CONTEXT() REPRESENTATION_CONTEXT('2D SPACE',''
  ) );
#649 = ORIENTED_EDGE('',*,*,#650,.F.);
#650 = EDGE_CURVE('',#586,#630,#651,.T.);
#651 = SURFACE_CURVE('',#652,(#656,#662),.PCURVE_S1.);
#652 = LINE('',#653,#654);
#653 = CARTESIAN_POINT('',(4.5,8.875,15.));
#654 = VECTOR('',#655,1.);
#655 = DIRECTION('',(-0.,1.,0.));
#656 = PCURVE('',#66,#657);
#657 = DEFINITIONAL_REPRESENTATION('',(#658),#661);
#658 = B_SPLINE_CURVE_WITH_KNOTS('',1,(#659,#660),.UNSPECIFIED.,.F.,.F.,
  (2,2),(8.875,13.375),.PIECEWISE_BEZIER_KNOTS.);
#659 = CARTESIAN_POINT('',(4.5,17.75));
#660 = CARTESIAN_POINT('',(4.5,22.25));
#661 = ( GEOMETRIC_REPRESENTATION_CONTEXT(2) 
PARAMETRIC_REPRESENTATION_CONTEXT() REPRESENTATION_CONTEXT('2D SPACE',''
  ) );
#662 = PCURVE('',#482,#663);
#663 = DEFINITIONAL_REPRESENTATION('',(#664),#667);
#664 = B_SPLINE_CURVE_WITH_KNOTS('',1,(#665,#666),.UNSPECIFIED.,.F.,.F.,
  (2,2),(8.875,13.375),.PIECEWISE_BEZIER_KNOTS.);
#665 = CARTESIAN_POINT('',(16.,0.));
#666 = CARTESIAN_POINT('',(16.,-4.5));
#667 = ( GEOMETRIC_REPRESENTATION_CONTEXT(2) 
PARAMETRIC_REPRESENTATION_CONTEXT() REPRESENTATION_CONTEXT('2D SPACE',''
  ) );
#668 = ADVANCED_FACE('',(#669),#218,.F.);
#669 = FACE_BOUND('',#670,.F.);
#670 = EDGE_LOOP('',(#671,#699,#720,#721));
#671 = ORIENTED_EDGE('',*,*,#672,.F.);
#672 = EDGE_CURVE('',#673,#673,#675,.T.);
#673 = VERTEX_POINT('',#674);
#674 = CARTESIAN_POINT('',(2.7,22.25,7.5));
#675 = SURFACE_CURVE('',#676,(#681,#688),.PCURVE_S1.);
#676 = CIRCLE('',#677,2.7);
#677 = AXIS2_PLACEMENT_3D('',#678,#679,#680);
#678 = CARTESIAN_POINT('',(0.,22.25,7.5));
#679 = DIRECTION('',(0.,-1.,2.22044604925E-16));
#680 = DIRECTION('',(1.,0.,0.));
#681 = PCURVE('',#218,#682);
#682 = DEFINITIONAL_REPRESENTATION('',(#683),#687);
#683 = LINE('',#684,#685);
#684 = CARTESIAN_POINT('',(0.,18.75));
#685 = VECTOR('',#686,1.);
#686 = DIRECTION('',(1.,0.));
#687 = ( GEOMETRIC_REPRESENTATION_CONTEXT(2) 
PARAMETRIC_REPRESENTATION_CONTEXT() REPRESENTATION_CONTEXT('2D SPACE',''
  ) );
#688 = PCURVE('',#458,#689);
#689 = DEFINITIONAL_REPRESENTATION('',(#690),#698);
#690 = ( BOUNDED_CURVE() B_SPLINE_CURVE(2,(#691,#692,#693,#694,#695,#696
,#697),.UNSPECIFIED.,.T.,.F.) B_SPLINE_CURVE_WITH_KNOTS((1,2,2,2,2,1),(
    -2.094395102393,0.,2.094395102393,4.188790204786,6.28318530718,
8.377580409573),.UNSPECIFIED.) CURVE() GEOMETRIC_REPRESENTATION_ITEM() 
RATIONAL_B_SPLINE_CURVE((1.,0.5,1.,0.5,1.,0.5,1.)) REPRESENTATION_ITEM(
  '') );
#691 = CARTESIAN_POINT('',(8.5,7.2));
#692 = CARTESIAN_POINT('',(13.176537180436,7.2));
#693 = CARTESIAN_POINT('',(10.838268590218,3.15));
#694 = CARTESIAN_POINT('',(8.5,-0.9));
#695 = CARTESIAN_POINT('',(6.161731409782,3.15));
#696 = CARTESIAN_POINT('',(3.823462819564,7.2));
#697 = CARTESIAN_POINT('',(8.5,7.2));
#698 = ( GEOMETRIC_REPRESENTATION_CONTEXT(2) 
PARAMETRIC_REPRESENTATION_CONTEXT() REPRESENTATION_CONTEXT('2D SPACE',''
  ) );
#699 = ORIENTED_EDGE('',*,*,#700,.F.);
#700 = EDGE_CURVE('',#109,#673,#701,.T.);
#701 = SEAM_CURVE('',#702,(#706,#713),.PCURVE_S1.);
#702 = LINE('',#703,#704);
#703 = CARTESIAN_POINT('',(2.7,41.,7.5));
#704 = VECTOR('',#705,1.);
#705 = DIRECTION('',(0.,-1.,2.22044604925E-16));
#706 = PCURVE('',#218,#707);
#707 = DEFINITIONAL_REPRESENTATION('',(#708),#712);
#708 = LINE('',#709,#710);
#709 = CARTESIAN_POINT('',(6.28318530718,-0.));
#710 = VECTOR('',#711,1.);
#711 = DIRECTION('',(0.,1.));
#712 = ( GEOMETRIC_REPRESENTATION_CONTEXT(2) 
PARAMETRIC_REPRESENTATION_CONTEXT() REPRESENTATION_CONTEXT('2D SPACE',''
  ) );
#713 = PCURVE('',#218,#714);
#714 = DEFINITIONAL_REPRESENTATION('',(#715),#719);
#715 = LINE('',#716,#717);
#716 = CARTESIAN_POINT('',(0.,-0.));
#717 = VECTOR('',#718,1.);
#718 = DIRECTION('',(0.,1.));
#719 = ( GEOMETRIC_REPRESENTATION_CONTEXT(2) 
PARAMETRIC_REPRESENTATION_CONTEXT() REPRESENTATION_CONTEXT('2D SPACE',''
  ) );
#720 = ORIENTED_EDGE('',*,*,#108,.T.);
#721 = ORIENTED_EDGE('',*,*,#700,.T.);
#722 = ADVANCED_FACE('',(#723),#300,.T.);
#723 = FACE_BOUND('',#724,.T.);
#724 = EDGE_LOOP('',(#725,#746,#747,#768));
#725 = ORIENTED_EDGE('',*,*,#726,.F.);
#726 = EDGE_CURVE('',#284,#500,#727,.T.);
#727 = SURFACE_CURVE('',#728,(#732,#739),.PCURVE_S1.);
#728 = LINE('',#729,#730);
#729 = CARTESIAN_POINT('',(16.3,-4.3,-1.));
#730 = VECTOR('',#731,1.);
#731 = DIRECTION('',(0.,0.,1.));
#732 = PCURVE('',#300,#733);
#733 = DEFINITIONAL_REPRESENTATION('',(#734),#738);
#734 = LINE('',#735,#736);
#735 = CARTESIAN_POINT('',(0.,32.6));
#736 = VECTOR('',#737,1.);
#737 = DIRECTION('',(1.,0.));
#738 = ( GEOMETRIC_REPRESENTATION_CONTEXT(2) 
PARAMETRIC_REPRESENTATION_CONTEXT() REPRESENTATION_CONTEXT('2D SPACE',''
  ) );
#739 = PCURVE('',#376,#740);
#740 = DEFINITIONAL_REPRESENTATION('',(#741),#745);
#741 = LINE('',#742,#743);
#742 = CARTESIAN_POINT('',(0.,0.));
#743 = VECTOR('',#744,1.);
#744 = DIRECTION('',(1.,0.));
#745 = ( GEOMETRIC_REPRESENTATION_CONTEXT(2) 
PARAMETRIC_REPRESENTATION_CONTEXT() REPRESENTATION_CONTEXT('2D SPACE',''
  ) );
#746 = ORIENTED_EDGE('',*,*,#283,.T.);
#747 = ORIENTED_EDGE('',*,*,#748,.T.);
#748 = EDGE_CURVE('',#286,#502,#749,.T.);
#749 = SURFACE_CURVE('',#750,(#754,#761),.PCURVE_S1.);
#750 = LINE('',#751,#752);
#751 = CARTESIAN_POINT('',(-16.3,-4.3,-1.));
#752 = VECTOR('',#753,1.);
#753 = DIRECTION('',(0.,0.,1.));
#754 = PCURVE('',#300,#755);
#755 = DEFINITIONAL_REPRESENTATION('',(#756),#760);
#756 = LINE('',#757,#758);
#757 = CARTESIAN_POINT('',(0.,0.));
#758 = VECTOR('',#759,1.);
#759 = DIRECTION('',(1.,0.));
#760 = ( GEOMETRIC_REPRESENTATION_CONTEXT(2) 
PARAMETRIC_REPRESENTATION_CONTEXT() REPRESENTATION_CONTEXT('2D SPACE',''
  ) );
#761 = PCURVE('',#326,#762);
#762 = DEFINITIONAL_REPRESENTATION('',(#763),#767);
#763 = LINE('',#764,#765);
#764 = CARTESIAN_POINT('',(0.,0.));
#765 = VECTOR('',#766,1.);
#766 = DIRECTION('',(1.,0.));
#767 = ( GEOMETRIC_REPRESENTATION_CONTEXT(2) 
PARAMETRIC_REPRESENTATION_CONTEXT() REPRESENTATION_CONTEXT('2D SPACE',''
  ) );
#768 = ORIENTED_EDGE('',*,*,#499,.F.);
#769 = ADVANCED_FACE('',(#770),#376,.F.);
#770 = FACE_BOUND('',#771,.F.);
#771 = EDGE_LOOP('',(#772,#773,#774,#795));
#772 = ORIENTED_EDGE('',*,*,#726,.F.);
#773 = ORIENTED_EDGE('',*,*,#363,.T.);
#774 = ORIENTED_EDGE('',*,*,#775,.T.);
#775 = EDGE_CURVE('',#338,#544,#776,.T.);
#776 = SURFACE_CURVE('',#777,(#781,#788),.PCURVE_S1.);
#777 = LINE('',#778,#779);
#778 = CARTESIAN_POINT('',(16.3,4.3,-1.));
#779 = VECTOR('',#780,1.);
#780 = DIRECTION('',(0.,0.,1.));
#781 = PCURVE('',#376,#782);
#782 = DEFINITIONAL_REPRESENTATION('',(#783),#787);
#783 = LINE('',#784,#785);
#784 = CARTESIAN_POINT('',(0.,-8.6));
#785 = VECTOR('',#786,1.);
#786 = DIRECTION('',(1.,0.));
#787 = ( GEOMETRIC_REPRESENTATION_CONTEXT(2) 
PARAMETRIC_REPRESENTATION_CONTEXT() REPRESENTATION_CONTEXT('2D SPACE',''
  ) );
#788 = PCURVE('',#352,#789);
#789 = DEFINITIONAL_REPRESENTATION('',(#790),#794);
#790 = LINE('',#791,#792);
#791 = CARTESIAN_POINT('',(0.,32.6));
#792 = VECTOR('',#793,1.);
#793 = DIRECTION('',(1.,0.));
#794 = ( GEOMETRIC_REPRESENTATION_CONTEXT(2) 
PARAMETRIC_REPRESENTATION_CONTEXT() REPRESENTATION_CONTEXT('2D SPACE',''
  ) );
#795 = ORIENTED_EDGE('',*,*,#564,.F.);
#796 = ADVANCED_FACE('',(#797),#326,.T.);
#797 = FACE_BOUND('',#798,.T.);
#798 = EDGE_LOOP('',(#799,#800,#801,#822));
#799 = ORIENTED_EDGE('',*,*,#748,.F.);
#800 = ORIENTED_EDGE('',*,*,#311,.T.);
#801 = ORIENTED_EDGE('',*,*,#802,.T.);
#802 = EDGE_CURVE('',#312,#523,#803,.T.);
#803 = SURFACE_CURVE('',#804,(#808,#815),.PCURVE_S1.);
#804 = LINE('',#805,#806);
#805 = CARTESIAN_POINT('',(-16.3,4.3,-1.));
#806 = VECTOR('',#807,1.);
#807 = DIRECTION('',(0.,0.,1.));
#808 = PCURVE('',#326,#809);
#809 = DEFINITIONAL_REPRESENTATION('',(#810),#814);
#810 = LINE('',#811,#812);
#811 = CARTESIAN_POINT('',(0.,-8.6));
#812 = VECTOR('',#813,1.);
#813 = DIRECTION('',(1.,0.));
#814 = ( GEOMETRIC_REPRESENTATION_CONTEXT(2) 
PARAMETRIC_REPRESENTATION_CONTEXT() REPRESENTATION_CONTEXT('2D SPACE',''
  ) );
#815 = PCURVE('',#352,#816);
#816 = DEFINITIONAL_REPRESENTATION('',(#817),#821);
#817 = LINE('',#818,#819);
#818 = CARTESIAN_POINT('',(0.,0.));
#819 = VECTOR('',#820,1.);
#820 = DIRECTION('',(1.,0.));
#821 = ( GEOMETRIC_REPRESENTATION_CONTEXT(2) 
PARAMETRIC_REPRESENTATION_CONTEXT() REPRESENTATION_CONTEXT('2D SPACE',''
  ) );
#822 = ORIENTED_EDGE('',*,*,#522,.F.);
#823 = ADVANCED_FACE('',(#824,#830),#352,.F.);
#824 = FACE_BOUND('',#825,.F.);
#825 = EDGE_LOOP('',(#826,#827,#828,#829));
#826 = ORIENTED_EDGE('',*,*,#775,.F.);
#827 = ORIENTED_EDGE('',*,*,#337,.T.);
#828 = ORIENTED_EDGE('',*,*,#802,.T.);
#829 = ORIENTED_EDGE('',*,*,#543,.F.);
#830 = FACE_BOUND('',#831,.F.);
#831 = EDGE_LOOP('',(#832));
#832 = ORIENTED_EDGE('',*,*,#833,.T.);
#833 = EDGE_CURVE('',#834,#834,#836,.T.);
#834 = VERTEX_POINT('',#835);
#835 = CARTESIAN_POINT('',(2.7,4.3,7.5));
#836 = SURFACE_CURVE('',#837,(#842,#853),.PCURVE_S1.);
#837 = CIRCLE('',#838,2.7);
#838 = AXIS2_PLACEMENT_3D('',#839,#840,#841);
#839 = CARTESIAN_POINT('',(0.,4.3,7.5));
#840 = DIRECTION('',(0.,-1.,2.22044604925E-16));
#841 = DIRECTION('',(1.,0.,0.));
#842 = PCURVE('',#352,#843);
#843 = DEFINITIONAL_REPRESENTATION('',(#844),#852);
#844 = ( BOUNDED_CURVE() B_SPLINE_CURVE(2,(#845,#846,#847,#848,#849,#850
,#851),.UNSPECIFIED.,.T.,.F.) B_SPLINE_CURVE_WITH_KNOTS((1,2,2,2,2,1),(
    -2.094395102393,0.,2.094395102393,4.188790204786,6.28318530718,
8.377580409573),.UNSPECIFIED.) CURVE() GEOMETRIC_REPRESENTATION_ITEM() 
RATIONAL_B_SPLINE_CURVE((1.,0.5,1.,0.5,1.,0.5,1.)) REPRESENTATION_ITEM(
  '') );
#845 = CARTESIAN_POINT('',(8.5,19.));
#846 = CARTESIAN_POINT('',(13.176537180436,19.));
#847 = CARTESIAN_POINT('',(10.838268590218,14.95));
#848 = CARTESIAN_POINT('',(8.5,10.9));
#849 = CARTESIAN_POINT('',(6.161731409782,14.95));
#850 = CARTESIAN_POINT('',(3.823462819564,19.));
#851 = CARTESIAN_POINT('',(8.5,19.));
#852 = ( GEOMETRIC_REPRESENTATION_CONTEXT(2) 
PARAMETRIC_REPRESENTATION_CONTEXT() REPRESENTATION_CONTEXT('2D SPACE',''
  ) );
#853 = PCURVE('',#854,#859);
#854 = CYLINDRICAL_SURFACE('',#855,2.7);
#855 = AXIS2_PLACEMENT_3D('',#856,#857,#858);
#856 = CARTESIAN_POINT('',(0.,41.,7.5));
#857 = DIRECTION('',(0.,-1.,2.22044604925E-16));
#858 = DIRECTION('',(1.,0.,0.));
#859 = DEFINITIONAL_REPRESENTATION('',(#860),#864);
#860 = LINE('',#861,#862);
#861 = CARTESIAN_POINT('',(0.,36.7));
#862 = VECTOR('',#863,1.);
#863 = DIRECTION('',(1.,0.));
#864 = ( GEOMETRIC_REPRESENTATION_CONTEXT(2) 
PARAMETRIC_REPRESENTATION_CONTEXT() REPRESENTATION_CONTEXT('2D SPACE',''
  ) );
#865 = ADVANCED_FACE('',(#866,#912),#406,.T.);
#866 = FACE_BOUND('',#867,.T.);
#867 = EDGE_LOOP('',(#868,#889,#890,#911));
#868 = ORIENTED_EDGE('',*,*,#869,.F.);
#869 = EDGE_CURVE('',#390,#586,#870,.T.);
#870 = SURFACE_CURVE('',#871,(#875,#882),.PCURVE_S1.);
#871 = LINE('',#872,#873);
#872 = CARTESIAN_POINT('',(4.5,17.75,-1.));
#873 = VECTOR('',#874,1.);
#874 = DIRECTION('',(0.,0.,1.));
#875 = PCURVE('',#406,#876);
#876 = DEFINITIONAL_REPRESENTATION('',(#877),#881);
#877 = LINE('',#878,#879);
#878 = CARTESIAN_POINT('',(0.,9.));
#879 = VECTOR('',#880,1.);
#880 = DIRECTION('',(1.,0.));
#881 = ( GEOMETRIC_REPRESENTATION_CONTEXT(2) 
PARAMETRIC_REPRESENTATION_CONTEXT() REPRESENTATION_CONTEXT('2D SPACE',''
  ) );
#882 = PCURVE('',#482,#883);
#883 = DEFINITIONAL_REPRESENTATION('',(#884),#888);
#884 = LINE('',#885,#886);
#885 = CARTESIAN_POINT('',(0.,0.));
#886 = VECTOR('',#887,1.);
#887 = DIRECTION('',(1.,0.));
#888 = ( GEOMETRIC_REPRESENTATION_CONTEXT(2) 
PARAMETRIC_REPRESENTATION_CONTEXT() REPRESENTATION_CONTEXT('2D SPACE',''
  ) );
#889 = ORIENTED_EDGE('',*,*,#389,.T.);
#890 = ORIENTED_EDGE('',*,*,#891,.T.);
#891 = EDGE_CURVE('',#392,#588,#892,.T.);
#892 = SURFACE_CURVE('',#893,(#897,#904),.PCURVE_S1.);
#893 = LINE('',#894,#895);
#894 = CARTESIAN_POINT('',(-4.5,17.75,-1.));
#895 = VECTOR('',#896,1.);
#896 = DIRECTION('',(0.,0.,1.));
#897 = PCURVE('',#406,#898);
#898 = DEFINITIONAL_REPRESENTATION('',(#899),#903);
#899 = LINE('',#900,#901);
#900 = CARTESIAN_POINT('',(0.,0.));
#901 = VECTOR('',#902,1.);
#902 = DIRECTION('',(1.,0.));
#903 = ( GEOMETRIC_REPRESENTATION_CONTEXT(2) 
PARAMETRIC_REPRESENTATION_CONTEXT() REPRESENTATION_CONTEXT('2D SPACE',''
  ) );
#904 = PCURVE('',#432,#905);
#905 = DEFINITIONAL_REPRESENTATION('',(#906),#910);
#906 = LINE('',#907,#908);
#907 = CARTESIAN_POINT('',(0.,0.));
#908 = VECTOR('',#909,1.);
#909 = DIRECTION('',(1.,0.));
#910 = ( GEOMETRIC_REPRESENTATION_CONTEXT(2) 
PARAMETRIC_REPRESENTATION_CONTEXT() REPRESENTATION_CONTEXT('2D SPACE',''
  ) );
#911 = ORIENTED_EDGE('',*,*,#585,.F.);
#912 = FACE_BOUND('',#913,.T.);
#913 = EDGE_LOOP('',(#914));
#914 = ORIENTED_EDGE('',*,*,#915,.T.);
#915 = EDGE_CURVE('',#916,#916,#918,.T.);
#916 = VERTEX_POINT('',#917);
#917 = CARTESIAN_POINT('',(2.7,17.75,7.5));
#918 = SURFACE_CURVE('',#919,(#924,#935),.PCURVE_S1.);
#919 = CIRCLE('',#920,2.7);
#920 = AXIS2_PLACEMENT_3D('',#921,#922,#923);
#921 = CARTESIAN_POINT('',(0.,17.75,7.5));
#922 = DIRECTION('',(0.,-1.,2.22044604925E-16));
#923 = DIRECTION('',(1.,0.,0.));
#924 = PCURVE('',#406,#925);
#925 = DEFINITIONAL_REPRESENTATION('',(#926),#934);
#926 = ( BOUNDED_CURVE() B_SPLINE_CURVE(2,(#927,#928,#929,#930,#931,#932
,#933),.UNSPECIFIED.,.T.,.F.) B_SPLINE_CURVE_WITH_KNOTS((1,2,2,2,2,1),(
    -2.094395102393,0.,2.094395102393,4.188790204786,6.28318530718,
8.377580409573),.UNSPECIFIED.) CURVE() GEOMETRIC_REPRESENTATION_ITEM() 
RATIONAL_B_SPLINE_CURVE((1.,0.5,1.,0.5,1.,0.5,1.)) REPRESENTATION_ITEM(
  '') );
#927 = CARTESIAN_POINT('',(8.5,7.2));
#928 = CARTESIAN_POINT('',(13.176537180436,7.2));
#929 = CARTESIAN_POINT('',(10.838268590218,3.15));
#930 = CARTESIAN_POINT('',(8.5,-0.9));
#931 = CARTESIAN_POINT('',(6.161731409782,3.15));
#932 = CARTESIAN_POINT('',(3.823462819564,7.2));
#933 = CARTESIAN_POINT('',(8.5,7.2));
#934 = ( GEOMETRIC_REPRESENTATION_CONTEXT(2) 
PARAMETRIC_REPRESENTATION_CONTEXT() REPRESENTATION_CONTEXT('2D SPACE',''
  ) );
#935 = PCURVE('',#854,#936);
#936 = DEFINITIONAL_REPRESENTATION('',(#937),#941);
#937 = LINE('',#938,#939);
#938 = CARTESIAN_POINT('',(0.,23.25));
#939 = VECTOR('',#940,1.);
#940 = DIRECTION('',(1.,0.));
#941 = ( GEOMETRIC_REPRESENTATION_CONTEXT(2) 
PARAMETRIC_REPRESENTATION_CONTEXT() REPRESENTATION_CONTEXT('2D SPACE',''
  ) );
#942 = ADVANCED_FACE('',(#943),#482,.F.);
#943 = FACE_BOUND('',#944,.F.);
#944 = EDGE_LOOP('',(#945,#946,#947,#968));
#945 = ORIENTED_EDGE('',*,*,#869,.F.);
#946 = ORIENTED_EDGE('',*,*,#469,.T.);
#947 = ORIENTED_EDGE('',*,*,#948,.T.);
#948 = EDGE_CURVE('',#444,#630,#949,.T.);
#949 = SURFACE_CURVE('',#950,(#954,#961),.PCURVE_S1.);
#950 = LINE('',#951,#952);
#951 = CARTESIAN_POINT('',(4.5,22.25,-1.));
#952 = VECTOR('',#953,1.);
#953 = DIRECTION('',(0.,0.,1.));
#954 = PCURVE('',#482,#955);
#955 = DEFINITIONAL_REPRESENTATION('',(#956),#960);
#956 = LINE('',#957,#958);
#957 = CARTESIAN_POINT('',(0.,-4.5));
#958 = VECTOR('',#959,1.);
#959 = DIRECTION('',(1.,0.));
#960 = ( GEOMETRIC_REPRESENTATION_CONTEXT(2) 
PARAMETRIC_REPRESENTATION_CONTEXT() REPRESENTATION_CONTEXT('2D SPACE',''
  ) );
#961 = PCURVE('',#458,#962);
#962 = DEFINITIONAL_REPRESENTATION('',(#963),#967);
#963 = LINE('',#964,#965);
#964 = CARTESIAN_POINT('',(0.,9.));
#965 = VECTOR('',#966,1.);
#966 = DIRECTION('',(1.,0.));
#967 = ( GEOMETRIC_REPRESENTATION_CONTEXT(2) 
PARAMETRIC_REPRESENTATION_CONTEXT() REPRESENTATION_CONTEXT('2D SPACE',''
  ) );
#968 = ORIENTED_EDGE('',*,*,#650,.F.);
#969 = ADVANCED_FACE('',(#970,#996),#458,.F.);
#970 = FACE_BOUND('',#971,.F.);
#971 = EDGE_LOOP('',(#972,#973,#974,#995));
#972 = ORIENTED_EDGE('',*,*,#948,.F.);
#973 = ORIENTED_EDGE('',*,*,#443,.T.);
#974 = ORIENTED_EDGE('',*,*,#975,.T.);
#975 = EDGE_CURVE('',#418,#609,#976,.T.);
#976 = SURFACE_CURVE('',#977,(#981,#988),.PCURVE_S1.);
#977 = LINE('',#978,#979);
#978 = CARTESIAN_POINT('',(-4.5,22.25,-1.));
#979 = VECTOR('',#980,1.);
#980 = DIRECTION('',(0.,0.,1.));
#981 = PCURVE('',#458,#982);
#982 = DEFINITIONAL_REPRESENTATION('',(#983),#987);
#983 = LINE('',#984,#985);
#984 = CARTESIAN_POINT('',(0.,0.));
#985 = VECTOR('',#986,1.);
#986 = DIRECTION('',(1.,0.));
#987 = ( GEOMETRIC_REPRESENTATION_CONTEXT(2) 
PARAMETRIC_REPRESENTATION_CONTEXT() REPRESENTATION_CONTEXT('2D SPACE',''
  ) );
#988 = PCURVE('',#432,#989);
#989 = DEFINITIONAL_REPRESENTATION('',(#990),#994);
#990 = LINE('',#991,#992);
#991 = CARTESIAN_POINT('',(0.,-4.5));
#992 = VECTOR('',#993,1.);
#993 = DIRECTION('',(1.,0.));
#994 = ( GEOMETRIC_REPRESENTATION_CONTEXT(2) 
PARAMETRIC_REPRESENTATION_CONTEXT() REPRESENTATION_CONTEXT('2D SPACE',''
  ) );
#995 = ORIENTED_EDGE('',*,*,#629,.F.);
#996 = FACE_BOUND('',#997,.F.);
#997 = EDGE_LOOP('',(#998));
#998 = ORIENTED_EDGE('',*,*,#672,.T.);
#999 = ADVANCED_FACE('',(#1000),#432,.T.);
#1000 = FACE_BOUND('',#1001,.T.);
#1001 = EDGE_LOOP('',(#1002,#1003,#1004,#1005));
#1002 = ORIENTED_EDGE('',*,*,#891,.F.);
#1003 = ORIENTED_EDGE('',*,*,#417,.T.);
#1004 = ORIENTED_EDGE('',*,*,#975,.T.);
#1005 = ORIENTED_EDGE('',*,*,#608,.F.);
#1006 = ADVANCED_FACE('',(#1007),#854,.F.);
#1007 = FACE_BOUND('',#1008,.F.);
#1008 = EDGE_LOOP('',(#1009,#1030,#1031,#1032));
#1009 = ORIENTED_EDGE('',*,*,#1010,.T.);
#1010 = EDGE_CURVE('',#916,#834,#1011,.T.);
#1011 = SEAM_CURVE('',#1012,(#1016,#1023),.PCURVE_S1.);
#1012 = LINE('',#1013,#1014);
#1013 = CARTESIAN_POINT('',(2.7,41.,7.5));
#1014 = VECTOR('',#1015,1.);
#1015 = DIRECTION('',(0.,-1.,2.22044604925E-16));
#1016 = PCURVE('',#854,#1017);
#1017 = DEFINITIONAL_REPRESENTATION('',(#1018),#1022);
#1018 = LINE('',#1019,#1020);
#1019 = CARTESIAN_POINT('',(6.28318530718,-0.));
#1020 = VECTOR('',#1021,1.);
#1021 = DIRECTION('',(0.,1.));
#1022 = ( GEOMETRIC_REPRESENTATION_CONTEXT(2) 
PARAMETRIC_REPRESENTATION_CONTEXT() REPRESENTATION_CONTEXT('2D SPACE',''
  ) );
#1023 = PCURVE('',#854,#1024);
#1024 = DEFINITIONAL_REPRESENTATION('',(#1025),#1029);
#1025 = LINE('',#1026,#1027);
#1026 = CARTESIAN_POINT('',(0.,-0.));
#1027 = VECTOR('',#1028,1.);
#1028 = DIRECTION('',(0.,1.));
#1029 = ( GEOMETRIC_REPRESENTATION_CONTEXT(2) 
PARAMETRIC_REPRESENTATION_CONTEXT() REPRESENTATION_CONTEXT('2D SPACE',''
  ) );
#1030 = ORIENTED_EDGE('',*,*,#833,.F.);
#1031 = ORIENTED_EDGE('',*,*,#1010,.F.);
#1032 = ORIENTED_EDGE('',*,*,#915,.T.);
#1033 = ( GEOMETRIC_REPRESENTATION_CONTEXT(3) 
GLOBAL_UNCERTAINTY_ASSIGNED_CONTEXT((#1037)) 
GLOBAL_UNIT_ASSIGNED_CONTEXT((#1034,#1035,#1036)) REPRESENTATION_CONTEXT
('Context #1','3D Context with UNIT and UNCERTAINTY') );
#1034 = ( LENGTH_UNIT() NAMED_UNIT(*) SI_UNIT(.MILLI.,.METRE.) );
#1035 = ( NAMED_UNIT(*) PLANE_ANGLE_UNIT() SI_UNIT($,.RADIAN.) );
#1036 = ( NAMED_UNIT(*) SI_UNIT($,.STERADIAN.) SOLID_ANGLE_UNIT() );
#1037 = UNCERTAINTY_MEASURE_WITH_UNIT(LENGTH_MEASURE(1.E-07),#1034,
  'distance_accuracy_value','confusion accuracy');
#1038 = PRODUCT_RELATED_PRODUCT_CATEGORY('part',$,(#7));
ENDSEC;
END-ISO-10303-21;
